G75*
%MOIN*%
%OFA0B0*%
%FSLAX25Y25*%
%IPPOS*%
%LPD*%
%AMOC8*
5,1,8,0,0,1.08239X$1,22.5*
%
%ADD10C,0.01100*%
%ADD11C,0.04819*%
%ADD12C,0.02213*%
%ADD13C,0.02409*%
%ADD14C,0.02846*%
%ADD15R,0.02165X0.04724*%
%ADD16R,0.11614X0.09449*%
%ADD17R,0.10433X0.09449*%
%ADD18R,0.03937X0.04331*%
%ADD19R,0.04331X0.03937*%
%ADD20R,0.01969X0.09843*%
%ADD21R,0.07874X0.09843*%
%ADD22R,0.06000X0.06000*%
%ADD23R,0.10000X0.40000*%
%ADD24C,0.01600*%
%ADD25C,0.03569*%
%ADD26C,0.01000*%
D10*
X0138070Y0089082D02*
X0139662Y0087489D01*
X0140724Y0087489D01*
X0142847Y0089613D01*
X0142847Y0090674D01*
X0141255Y0092266D01*
X0138070Y0089082D01*
X0136547Y0090605D02*
X0139732Y0093789D01*
X0137609Y0095913D02*
X0136547Y0090605D01*
X0134424Y0092728D02*
X0137609Y0095913D01*
X0135024Y0096374D02*
X0135024Y0098497D01*
X0132901Y0098497D01*
X0130778Y0096374D01*
X0132370Y0097966D02*
X0134493Y0095843D01*
X0135024Y0096374D02*
X0132901Y0094251D01*
X0143278Y0101374D02*
X0144870Y0099782D01*
X0145932Y0099782D01*
X0148055Y0101905D01*
X0148055Y0102966D01*
X0146463Y0104559D01*
X0143278Y0101374D01*
X0148516Y0099320D02*
X0150639Y0097197D01*
X0150570Y0094082D02*
X0153755Y0097266D01*
X0153755Y0095143D01*
X0155878Y0095143D01*
X0152693Y0091959D01*
X0154216Y0090436D02*
X0156339Y0088313D01*
X0157862Y0086790D02*
X0161047Y0089974D01*
X0161047Y0087851D01*
X0163170Y0087851D01*
X0159985Y0084666D01*
X0162039Y0083674D02*
X0162039Y0082613D01*
X0163101Y0081551D01*
X0164162Y0081551D01*
X0164693Y0082082D01*
X0164693Y0083143D01*
X0163631Y0084205D01*
X0163631Y0085267D01*
X0164162Y0085797D01*
X0165224Y0085797D01*
X0166285Y0084736D01*
X0166285Y0083674D01*
X0156870Y0090966D02*
X0155808Y0092028D01*
X0154216Y0090436D02*
X0157401Y0093620D01*
X0159524Y0091497D01*
X0150670Y0082851D02*
X0148547Y0084974D01*
X0146955Y0083382D01*
X0148547Y0082851D01*
X0149078Y0082320D01*
X0149078Y0081259D01*
X0148016Y0080197D01*
X0146955Y0080197D01*
X0145893Y0081259D01*
X0145893Y0082320D01*
X0149008Y0078143D02*
X0154316Y0079205D01*
X0154778Y0076620D02*
X0156901Y0076620D01*
X0153716Y0073436D01*
X0152654Y0074497D02*
X0154778Y0072374D01*
X0156301Y0070851D02*
X0156831Y0071382D01*
X0161078Y0071382D01*
X0161608Y0071913D01*
X0159485Y0074036D01*
D11*
X0095000Y0086374D03*
D12*
X0091004Y0083878D03*
X0098996Y0083878D03*
D13*
X0095000Y0094654D03*
D14*
X0091197Y0094654D03*
X0098803Y0094654D03*
D15*
X0106260Y0071493D03*
X0110000Y0071493D03*
X0113740Y0071493D03*
X0113740Y0061256D03*
X0106260Y0061256D03*
X0048740Y0091256D03*
X0045000Y0091256D03*
X0041260Y0091256D03*
X0041260Y0101493D03*
X0048740Y0101493D03*
D16*
X0032106Y0026197D03*
X0057894Y0015567D03*
D17*
X0058484Y0053756D03*
X0031516Y0053756D03*
D18*
X0030000Y0065528D03*
X0030000Y0072220D03*
X0030000Y0078028D03*
X0030000Y0084720D03*
X0055000Y0072220D03*
X0055000Y0065528D03*
X0080000Y0088028D03*
X0080000Y0094720D03*
X0080846Y0101374D03*
X0074154Y0101374D03*
X0065000Y0102220D03*
X0065000Y0095528D03*
X0122500Y0069720D03*
X0122500Y0063028D03*
D19*
X0115846Y0053874D03*
X0109154Y0053874D03*
X0050000Y0078028D03*
X0040000Y0079720D03*
X0050000Y0084720D03*
X0055000Y0095528D03*
X0055000Y0102220D03*
X0086654Y0101374D03*
X0093346Y0101374D03*
X0040000Y0073028D03*
D20*
X0098701Y0041217D03*
X0101850Y0041217D03*
X0105000Y0041217D03*
X0108150Y0041217D03*
X0111299Y0041217D03*
D21*
X0122717Y0041217D03*
X0087283Y0041217D03*
X0087283Y0019563D03*
X0122717Y0019563D03*
D22*
X0145000Y0018874D03*
X0155000Y0018874D03*
D23*
X0170000Y0058874D03*
D24*
X0155000Y0038874D02*
X0155000Y0018874D01*
X0145000Y0018874D02*
X0145000Y0031374D01*
X0127500Y0048874D01*
X0111299Y0048874D01*
X0111299Y0051728D01*
X0109154Y0053874D01*
X0110000Y0054720D01*
X0110000Y0066374D01*
X0117500Y0066374D01*
X0120000Y0063874D01*
X0121654Y0063874D01*
X0122500Y0063028D01*
X0115846Y0059149D02*
X0115846Y0053874D01*
X0122500Y0053874D01*
X0115846Y0059149D02*
X0113740Y0061256D01*
X0110000Y0066374D02*
X0110000Y0071493D01*
X0106260Y0071493D02*
X0106260Y0075134D01*
X0107500Y0076374D01*
X0113740Y0076374D01*
X0115846Y0076374D01*
X0122500Y0069720D01*
X0124154Y0069720D01*
X0155000Y0038874D01*
X0111299Y0041217D02*
X0111299Y0048874D01*
X0098701Y0041217D02*
X0098701Y0063933D01*
X0106260Y0071493D01*
X0113740Y0071493D02*
X0113740Y0076374D01*
X0105004Y0083878D02*
X0098996Y0083878D01*
X0096500Y0086374D01*
X0095000Y0086374D01*
X0093500Y0086374D01*
X0091004Y0083878D01*
X0085004Y0083878D01*
X0080000Y0078874D01*
X0075000Y0071374D02*
X0075000Y0091374D01*
X0078346Y0094720D01*
X0080000Y0094720D01*
X0080067Y0094654D01*
X0091197Y0094654D01*
X0095000Y0094654D02*
X0095000Y0086374D01*
X0105004Y0083878D02*
X0110000Y0088874D01*
X0098803Y0094654D02*
X0098803Y0095917D01*
X0093346Y0101374D01*
X0086654Y0101374D02*
X0080846Y0101374D01*
X0074154Y0101374D02*
X0073307Y0102220D01*
X0065000Y0102220D01*
X0055000Y0102220D01*
X0054272Y0101493D01*
X0048740Y0101493D01*
X0041260Y0101493D02*
X0030000Y0090233D01*
X0030000Y0088874D01*
X0035000Y0088874D01*
X0030000Y0088874D02*
X0030000Y0084720D01*
X0031654Y0078028D02*
X0037500Y0083874D01*
X0042500Y0083874D01*
X0045000Y0086374D01*
X0045000Y0091256D01*
X0041260Y0091256D02*
X0041260Y0095134D01*
X0042500Y0096374D01*
X0054154Y0096374D01*
X0055000Y0095528D01*
X0055000Y0072220D01*
X0047500Y0071374D02*
X0047500Y0075528D01*
X0050000Y0078028D01*
X0043346Y0079720D02*
X0048346Y0084720D01*
X0050000Y0084720D01*
X0048740Y0085980D01*
X0048740Y0091256D01*
X0055000Y0095528D02*
X0065000Y0095528D01*
X0043346Y0079720D02*
X0040000Y0079720D01*
X0031654Y0078028D02*
X0030000Y0078028D01*
X0030000Y0072220D01*
X0030807Y0073028D01*
X0040000Y0073028D01*
X0030000Y0065528D02*
X0029154Y0065528D01*
X0022500Y0058874D01*
X0022500Y0035803D01*
X0032106Y0026197D01*
X0058484Y0053756D02*
X0055000Y0057240D01*
X0055000Y0065528D01*
D25*
X0047500Y0071374D03*
X0040000Y0063874D03*
X0047500Y0053874D03*
X0070000Y0048874D03*
X0060000Y0038874D03*
X0070000Y0028874D03*
X0080000Y0038874D03*
X0090000Y0048874D03*
X0080000Y0058874D03*
X0075000Y0071374D03*
X0080000Y0078874D03*
X0060000Y0078874D03*
X0035000Y0088874D03*
X0020000Y0078874D03*
X0020000Y0068874D03*
X0030000Y0038874D03*
X0045000Y0033874D03*
X0105000Y0018874D03*
X0140000Y0028874D03*
X0150000Y0036374D03*
X0160000Y0038874D03*
X0140000Y0043874D03*
X0130000Y0053874D03*
X0122500Y0053874D03*
X0150000Y0068874D03*
X0160000Y0058874D03*
X0160000Y0078874D03*
X0150000Y0088874D03*
X0140000Y0078874D03*
X0130000Y0088874D03*
X0120000Y0078874D03*
X0110000Y0088874D03*
X0100000Y0078874D03*
X0120000Y0098874D03*
X0140000Y0098874D03*
D26*
X0030063Y0014706D02*
X0029294Y0013374D01*
X0050587Y0013374D01*
X0050587Y0015067D01*
X0057394Y0015067D01*
X0057394Y0016067D01*
X0057394Y0021791D01*
X0051889Y0021791D01*
X0051606Y0021716D01*
X0051606Y0021999D01*
X0050601Y0024427D01*
X0048742Y0026286D01*
X0046314Y0027291D01*
X0043686Y0027291D01*
X0041258Y0026286D01*
X0039613Y0024641D01*
X0039613Y0031625D01*
X0038618Y0032621D01*
X0029217Y0032621D01*
X0025000Y0036839D01*
X0025000Y0047927D01*
X0025595Y0047331D01*
X0037436Y0047331D01*
X0038432Y0048327D01*
X0038432Y0059184D01*
X0037436Y0060180D01*
X0027342Y0060180D01*
X0028824Y0061662D01*
X0032673Y0061662D01*
X0033668Y0062658D01*
X0033668Y0068397D01*
X0033050Y0069015D01*
X0033169Y0069134D01*
X0033366Y0069476D01*
X0033468Y0069858D01*
X0033468Y0071736D01*
X0030484Y0071736D01*
X0030484Y0072705D01*
X0029516Y0072705D01*
X0029516Y0075886D01*
X0029516Y0077543D01*
X0030484Y0077543D01*
X0030484Y0072705D01*
X0033468Y0072705D01*
X0033468Y0074583D01*
X0033366Y0074965D01*
X0033274Y0075124D01*
X0033366Y0075283D01*
X0033468Y0075665D01*
X0033468Y0077543D01*
X0030484Y0077543D01*
X0030484Y0078512D01*
X0033468Y0078512D01*
X0033468Y0080390D01*
X0033366Y0080772D01*
X0033169Y0081114D01*
X0033050Y0081233D01*
X0033668Y0081851D01*
X0033668Y0085654D01*
X0034307Y0085390D01*
X0035693Y0085390D01*
X0036974Y0085920D01*
X0037954Y0086900D01*
X0038484Y0088181D01*
X0038484Y0088182D01*
X0039473Y0087193D01*
X0043047Y0087193D01*
X0043347Y0087493D01*
X0043720Y0087393D01*
X0044959Y0087393D01*
X0044959Y0091214D01*
X0045041Y0091214D01*
X0045041Y0087393D01*
X0046135Y0087393D01*
X0046135Y0087393D01*
X0046135Y0086044D01*
X0043174Y0083084D01*
X0042870Y0083389D01*
X0037130Y0083389D01*
X0036135Y0082393D01*
X0036135Y0077048D01*
X0036960Y0076223D01*
X0036914Y0076196D01*
X0036634Y0075917D01*
X0036437Y0075575D01*
X0036335Y0075194D01*
X0036335Y0073512D01*
X0039516Y0073512D01*
X0039516Y0072543D01*
X0040484Y0072543D01*
X0040484Y0069559D01*
X0042363Y0069559D01*
X0042744Y0069661D01*
X0043086Y0069859D01*
X0043366Y0070138D01*
X0043563Y0070480D01*
X0043665Y0070862D01*
X0043665Y0072543D01*
X0040484Y0072543D01*
X0040484Y0073512D01*
X0043665Y0073512D01*
X0043665Y0075194D01*
X0043563Y0075575D01*
X0043366Y0075917D01*
X0043086Y0076196D01*
X0043040Y0076223D01*
X0043865Y0077048D01*
X0043865Y0077229D01*
X0044763Y0077601D01*
X0046135Y0078973D01*
X0046135Y0077698D01*
X0046084Y0077647D01*
X0045381Y0076944D01*
X0045000Y0076025D01*
X0045000Y0073801D01*
X0044546Y0073348D01*
X0044016Y0072067D01*
X0044016Y0070681D01*
X0044546Y0069400D01*
X0045526Y0068420D01*
X0046807Y0067890D01*
X0048193Y0067890D01*
X0049474Y0068420D01*
X0050454Y0069400D01*
X0050984Y0070681D01*
X0050984Y0072067D01*
X0050454Y0073348D01*
X0050000Y0073801D01*
X0050000Y0074359D01*
X0051331Y0074359D01*
X0051331Y0069351D01*
X0051808Y0068874D01*
X0051331Y0068397D01*
X0051331Y0062658D01*
X0052327Y0061662D01*
X0052500Y0061662D01*
X0052500Y0060117D01*
X0051568Y0059184D01*
X0051568Y0048327D01*
X0052564Y0047331D01*
X0064405Y0047331D01*
X0065401Y0048327D01*
X0065401Y0059184D01*
X0064405Y0060180D01*
X0057500Y0060180D01*
X0057500Y0061662D01*
X0057673Y0061662D01*
X0058668Y0062658D01*
X0058668Y0068397D01*
X0058192Y0068874D01*
X0058668Y0069351D01*
X0058668Y0075090D01*
X0057673Y0076086D01*
X0057500Y0076086D01*
X0057500Y0091859D01*
X0057870Y0091859D01*
X0058865Y0092855D01*
X0058865Y0093028D01*
X0061331Y0093028D01*
X0061331Y0092658D01*
X0062327Y0091662D01*
X0067673Y0091662D01*
X0068668Y0092658D01*
X0068668Y0098397D01*
X0068192Y0098874D01*
X0068668Y0099351D01*
X0068668Y0099720D01*
X0070485Y0099720D01*
X0070485Y0098504D01*
X0071481Y0097509D01*
X0076331Y0097509D01*
X0076331Y0096241D01*
X0076227Y0096137D01*
X0072881Y0092790D01*
X0072500Y0091871D01*
X0072500Y0073801D01*
X0072046Y0073348D01*
X0071516Y0072067D01*
X0071516Y0070681D01*
X0072046Y0069400D01*
X0073026Y0068420D01*
X0074307Y0067890D01*
X0075693Y0067890D01*
X0076974Y0068420D01*
X0077954Y0069400D01*
X0078484Y0070681D01*
X0078484Y0072067D01*
X0077954Y0073348D01*
X0077500Y0073801D01*
X0077500Y0084452D01*
X0077834Y0084362D01*
X0079516Y0084362D01*
X0079516Y0087543D01*
X0080484Y0087543D01*
X0080484Y0084362D01*
X0082166Y0084362D01*
X0082547Y0084464D01*
X0082890Y0084662D01*
X0083169Y0084941D01*
X0083366Y0085283D01*
X0083468Y0085665D01*
X0083468Y0087543D01*
X0080484Y0087543D01*
X0080484Y0088512D01*
X0083468Y0088512D01*
X0083468Y0090390D01*
X0083366Y0090772D01*
X0083169Y0091114D01*
X0083050Y0091233D01*
X0083668Y0091851D01*
X0083668Y0092154D01*
X0086751Y0092154D01*
X0086751Y0080747D01*
X0087893Y0079605D01*
X0102107Y0079605D01*
X0103249Y0080747D01*
X0103249Y0097953D01*
X0102107Y0099096D01*
X0099160Y0099096D01*
X0097212Y0101044D01*
X0097212Y0104047D01*
X0096884Y0104374D01*
X0143096Y0104374D01*
X0141696Y0102975D01*
X0141028Y0102306D01*
X0141028Y0100442D01*
X0141984Y0099486D01*
X0142620Y0098850D01*
X0142620Y0098850D01*
X0142982Y0098488D01*
X0143938Y0097532D01*
X0146864Y0097532D01*
X0146993Y0097661D01*
X0148980Y0095674D01*
X0148320Y0095014D01*
X0148320Y0093150D01*
X0149638Y0091832D01*
X0150443Y0091832D01*
X0150443Y0091027D01*
X0151761Y0089709D01*
X0151966Y0089709D01*
X0151966Y0089504D01*
X0153284Y0088186D01*
X0153284Y0088186D01*
X0155407Y0086063D01*
X0155612Y0086063D01*
X0155612Y0085858D01*
X0156930Y0084540D01*
X0157735Y0084540D01*
X0157735Y0083734D01*
X0159053Y0082416D01*
X0159789Y0082416D01*
X0159789Y0081681D01*
X0162169Y0079301D01*
X0163562Y0079301D01*
X0163500Y0079071D01*
X0163500Y0073203D01*
X0162540Y0074163D01*
X0160417Y0076286D01*
X0159151Y0076286D01*
X0159151Y0077552D01*
X0157833Y0078870D01*
X0156678Y0078870D01*
X0156340Y0080560D01*
X0154789Y0081594D01*
X0152047Y0081046D01*
X0152920Y0081919D01*
X0152920Y0083783D01*
X0150797Y0085906D01*
X0149479Y0087224D01*
X0147615Y0087224D01*
X0145622Y0085231D01*
X0145115Y0084978D01*
X0144988Y0084597D01*
X0144961Y0084570D01*
X0143643Y0083252D01*
X0143643Y0080327D01*
X0144961Y0079009D01*
X0146023Y0077947D01*
X0146753Y0077947D01*
X0146985Y0076788D01*
X0148536Y0075754D01*
X0151278Y0076303D01*
X0150404Y0075429D01*
X0150404Y0073565D01*
X0151466Y0072504D01*
X0151466Y0072504D01*
X0152784Y0071186D01*
X0153846Y0070124D01*
X0154051Y0070124D01*
X0154051Y0069919D01*
X0155369Y0068601D01*
X0157233Y0068601D01*
X0157763Y0069132D01*
X0162010Y0069132D01*
X0163328Y0070450D01*
X0163500Y0070622D01*
X0163500Y0059374D01*
X0169500Y0059374D01*
X0169500Y0080374D01*
X0166167Y0080374D01*
X0166412Y0080619D01*
X0166943Y0081150D01*
X0166943Y0081424D01*
X0167217Y0081424D01*
X0168535Y0082742D01*
X0168535Y0085668D01*
X0167474Y0086729D01*
X0166156Y0088047D01*
X0165420Y0088047D01*
X0165420Y0088783D01*
X0164792Y0089411D01*
X0165832Y0088811D01*
X0168578Y0088075D01*
X0171422Y0088075D01*
X0174168Y0088811D01*
X0175500Y0089580D01*
X0175500Y0080293D01*
X0175197Y0080374D01*
X0170500Y0080374D01*
X0170500Y0059374D01*
X0169500Y0059374D01*
X0169500Y0058374D01*
X0170500Y0058374D01*
X0170500Y0037374D01*
X0175197Y0037374D01*
X0175500Y0037455D01*
X0175500Y0028168D01*
X0174168Y0028937D01*
X0171422Y0029673D01*
X0168578Y0029673D01*
X0165832Y0028937D01*
X0163369Y0027516D01*
X0161358Y0025505D01*
X0159937Y0023042D01*
X0159700Y0022159D01*
X0159700Y0022578D01*
X0158704Y0023574D01*
X0157500Y0023574D01*
X0157500Y0039371D01*
X0157119Y0040290D01*
X0156416Y0040993D01*
X0126168Y0071241D01*
X0126168Y0072590D01*
X0125173Y0073586D01*
X0122170Y0073586D01*
X0117966Y0077790D01*
X0117263Y0078493D01*
X0116344Y0078874D01*
X0107003Y0078874D01*
X0106084Y0078493D01*
X0105381Y0077790D01*
X0104140Y0076550D01*
X0103760Y0075631D01*
X0103760Y0074842D01*
X0103477Y0074559D01*
X0103477Y0072245D01*
X0096581Y0065350D01*
X0096201Y0064431D01*
X0096201Y0047026D01*
X0096017Y0046842D01*
X0096017Y0037646D01*
X0095091Y0037646D01*
X0092920Y0036747D01*
X0092920Y0046842D01*
X0091925Y0047838D01*
X0082642Y0047838D01*
X0081646Y0046842D01*
X0081646Y0035591D01*
X0082642Y0034595D01*
X0090884Y0034595D01*
X0090067Y0032622D01*
X0090067Y0030127D01*
X0091022Y0027821D01*
X0092786Y0026057D01*
X0095091Y0025102D01*
X0097586Y0025102D01*
X0099891Y0026057D01*
X0101655Y0027821D01*
X0102610Y0030127D01*
X0102610Y0032622D01*
X0101793Y0034595D01*
X0108207Y0034595D01*
X0107390Y0032622D01*
X0107390Y0030127D01*
X0108345Y0027821D01*
X0110109Y0026057D01*
X0112414Y0025102D01*
X0114909Y0025102D01*
X0117214Y0026057D01*
X0118978Y0027821D01*
X0119933Y0030127D01*
X0119933Y0032622D01*
X0119115Y0034595D01*
X0127358Y0034595D01*
X0128354Y0035591D01*
X0128354Y0046842D01*
X0127358Y0047838D01*
X0118075Y0047838D01*
X0117080Y0046842D01*
X0117080Y0036747D01*
X0114909Y0037646D01*
X0113783Y0037646D01*
X0113783Y0041216D01*
X0111299Y0041216D01*
X0111299Y0041217D01*
X0111299Y0047638D01*
X0110117Y0047638D01*
X0110055Y0047621D01*
X0109838Y0047838D01*
X0101201Y0047838D01*
X0101201Y0062898D01*
X0105733Y0067430D01*
X0108047Y0067430D01*
X0108347Y0067730D01*
X0108720Y0067630D01*
X0109959Y0067630D01*
X0109959Y0071451D01*
X0110041Y0071451D01*
X0110041Y0067630D01*
X0111280Y0067630D01*
X0111653Y0067730D01*
X0111953Y0067430D01*
X0115527Y0067430D01*
X0116523Y0068426D01*
X0116523Y0072162D01*
X0118831Y0069853D01*
X0118831Y0066851D01*
X0119450Y0066233D01*
X0119331Y0066114D01*
X0119134Y0065772D01*
X0119031Y0065390D01*
X0119031Y0063512D01*
X0122016Y0063512D01*
X0122016Y0062543D01*
X0122984Y0062543D01*
X0122984Y0059362D01*
X0124666Y0059362D01*
X0125047Y0059464D01*
X0125390Y0059662D01*
X0125669Y0059941D01*
X0125866Y0060283D01*
X0125968Y0060665D01*
X0125968Y0062543D01*
X0122984Y0062543D01*
X0122984Y0063512D01*
X0125968Y0063512D01*
X0125968Y0064370D01*
X0152500Y0037838D01*
X0152500Y0023574D01*
X0151296Y0023574D01*
X0150300Y0022578D01*
X0150300Y0015170D01*
X0151296Y0014174D01*
X0158704Y0014174D01*
X0159700Y0015170D01*
X0159700Y0015589D01*
X0159937Y0014706D01*
X0160706Y0013374D01*
X0127790Y0013374D01*
X0128354Y0013938D01*
X0128354Y0025188D01*
X0127358Y0026184D01*
X0118075Y0026184D01*
X0117080Y0025188D01*
X0117080Y0013938D01*
X0117643Y0013374D01*
X0092357Y0013374D01*
X0092920Y0013938D01*
X0092920Y0025188D01*
X0091925Y0026184D01*
X0082642Y0026184D01*
X0081646Y0025188D01*
X0081646Y0013938D01*
X0082210Y0013374D01*
X0065201Y0013374D01*
X0065201Y0015067D01*
X0058394Y0015067D01*
X0058394Y0016067D01*
X0065201Y0016067D01*
X0065201Y0020489D01*
X0065099Y0020870D01*
X0064901Y0021212D01*
X0064622Y0021492D01*
X0064280Y0021689D01*
X0063898Y0021791D01*
X0058394Y0021791D01*
X0058394Y0016067D01*
X0057394Y0016067D01*
X0050587Y0016067D01*
X0050587Y0016929D01*
X0048742Y0015084D01*
X0046314Y0014079D01*
X0043686Y0014079D01*
X0041258Y0015084D01*
X0039399Y0016943D01*
X0038394Y0019371D01*
X0038394Y0019772D01*
X0030799Y0019772D01*
X0030799Y0017452D01*
X0030063Y0014706D01*
X0030106Y0014865D02*
X0041788Y0014865D01*
X0040479Y0015864D02*
X0030374Y0015864D01*
X0030641Y0016862D02*
X0039480Y0016862D01*
X0039019Y0017861D02*
X0030799Y0017861D01*
X0030799Y0018859D02*
X0038606Y0018859D01*
X0039613Y0024850D02*
X0039822Y0024850D01*
X0039613Y0025849D02*
X0040821Y0025849D01*
X0039613Y0026847D02*
X0042614Y0026847D01*
X0039613Y0027846D02*
X0091012Y0027846D01*
X0090598Y0028844D02*
X0039613Y0028844D01*
X0039613Y0029843D02*
X0090184Y0029843D01*
X0090067Y0030841D02*
X0039613Y0030841D01*
X0039399Y0031840D02*
X0090067Y0031840D01*
X0090157Y0032838D02*
X0029000Y0032838D01*
X0028002Y0033837D02*
X0090570Y0033837D01*
X0092920Y0036832D02*
X0093128Y0036832D01*
X0092920Y0037831D02*
X0096017Y0037831D01*
X0096017Y0038829D02*
X0092920Y0038829D01*
X0092920Y0039828D02*
X0096017Y0039828D01*
X0096017Y0040826D02*
X0092920Y0040826D01*
X0092920Y0041825D02*
X0096017Y0041825D01*
X0096017Y0042823D02*
X0092920Y0042823D01*
X0092920Y0043822D02*
X0096017Y0043822D01*
X0096017Y0044820D02*
X0092920Y0044820D01*
X0092920Y0045819D02*
X0096017Y0045819D01*
X0096017Y0046817D02*
X0092920Y0046817D01*
X0091946Y0047816D02*
X0096201Y0047816D01*
X0096201Y0048814D02*
X0065401Y0048814D01*
X0065401Y0049813D02*
X0096201Y0049813D01*
X0096201Y0050811D02*
X0065401Y0050811D01*
X0065401Y0051810D02*
X0096201Y0051810D01*
X0096201Y0052809D02*
X0065401Y0052809D01*
X0065401Y0053807D02*
X0096201Y0053807D01*
X0096201Y0054806D02*
X0065401Y0054806D01*
X0065401Y0055804D02*
X0096201Y0055804D01*
X0096201Y0056803D02*
X0065401Y0056803D01*
X0065401Y0057801D02*
X0096201Y0057801D01*
X0096201Y0058800D02*
X0065401Y0058800D01*
X0064787Y0059798D02*
X0096201Y0059798D01*
X0096201Y0060797D02*
X0057500Y0060797D01*
X0057806Y0061795D02*
X0096201Y0061795D01*
X0096201Y0062794D02*
X0058668Y0062794D01*
X0058668Y0063792D02*
X0096201Y0063792D01*
X0096350Y0064791D02*
X0058668Y0064791D01*
X0058668Y0065789D02*
X0097021Y0065789D01*
X0098019Y0066788D02*
X0058668Y0066788D01*
X0058668Y0067786D02*
X0099018Y0067786D01*
X0100016Y0068785D02*
X0077338Y0068785D01*
X0078112Y0069783D02*
X0101015Y0069783D01*
X0102014Y0070782D02*
X0078484Y0070782D01*
X0078484Y0071780D02*
X0103012Y0071780D01*
X0103477Y0072779D02*
X0078189Y0072779D01*
X0077524Y0073777D02*
X0103477Y0073777D01*
X0103694Y0074776D02*
X0077500Y0074776D01*
X0077500Y0075774D02*
X0103819Y0075774D01*
X0104363Y0076773D02*
X0077500Y0076773D01*
X0077500Y0077771D02*
X0105362Y0077771D01*
X0106751Y0078770D02*
X0077500Y0078770D01*
X0077500Y0079768D02*
X0087730Y0079768D01*
X0086751Y0080767D02*
X0077500Y0080767D01*
X0077500Y0081765D02*
X0086751Y0081765D01*
X0086751Y0082764D02*
X0077500Y0082764D01*
X0077500Y0083762D02*
X0086751Y0083762D01*
X0086751Y0084761D02*
X0082988Y0084761D01*
X0083468Y0085759D02*
X0086751Y0085759D01*
X0086751Y0086758D02*
X0083468Y0086758D01*
X0080484Y0087756D02*
X0086751Y0087756D01*
X0086751Y0088755D02*
X0083468Y0088755D01*
X0083468Y0089753D02*
X0086751Y0089753D01*
X0086751Y0090752D02*
X0083372Y0090752D01*
X0083568Y0091750D02*
X0086751Y0091750D01*
X0080484Y0086758D02*
X0079516Y0086758D01*
X0079516Y0085759D02*
X0080484Y0085759D01*
X0080484Y0084761D02*
X0079516Y0084761D01*
X0072500Y0084761D02*
X0057500Y0084761D01*
X0057500Y0085759D02*
X0072500Y0085759D01*
X0072500Y0086758D02*
X0057500Y0086758D01*
X0057500Y0087756D02*
X0072500Y0087756D01*
X0072500Y0088755D02*
X0057500Y0088755D01*
X0057500Y0089753D02*
X0072500Y0089753D01*
X0072500Y0090752D02*
X0057500Y0090752D01*
X0057500Y0091750D02*
X0062239Y0091750D01*
X0061331Y0092749D02*
X0058759Y0092749D01*
X0067761Y0091750D02*
X0072500Y0091750D01*
X0072864Y0092749D02*
X0068668Y0092749D01*
X0068668Y0093747D02*
X0073838Y0093747D01*
X0074836Y0094746D02*
X0068668Y0094746D01*
X0068668Y0095745D02*
X0075835Y0095745D01*
X0076331Y0096743D02*
X0068668Y0096743D01*
X0068668Y0097742D02*
X0071248Y0097742D01*
X0070485Y0098740D02*
X0068326Y0098740D01*
X0046135Y0086758D02*
X0037811Y0086758D01*
X0038308Y0087756D02*
X0038910Y0087756D01*
X0036585Y0085759D02*
X0045850Y0085759D01*
X0044851Y0084761D02*
X0033668Y0084761D01*
X0033668Y0083762D02*
X0043853Y0083762D01*
X0044959Y0087756D02*
X0045041Y0087756D01*
X0045041Y0088755D02*
X0044959Y0088755D01*
X0044959Y0089753D02*
X0045041Y0089753D01*
X0045041Y0090752D02*
X0044959Y0090752D01*
X0036505Y0082764D02*
X0033668Y0082764D01*
X0033583Y0081765D02*
X0036135Y0081765D01*
X0036135Y0080767D02*
X0033368Y0080767D01*
X0033468Y0079768D02*
X0036135Y0079768D01*
X0036135Y0078770D02*
X0033468Y0078770D01*
X0036135Y0077771D02*
X0030484Y0077771D01*
X0029516Y0077771D02*
X0014500Y0077771D01*
X0014500Y0076773D02*
X0026531Y0076773D01*
X0026531Y0077543D02*
X0026531Y0075665D01*
X0026634Y0075283D01*
X0026726Y0075124D01*
X0026634Y0074965D01*
X0026531Y0074583D01*
X0026531Y0072705D01*
X0029516Y0072705D01*
X0029516Y0071736D01*
X0026531Y0071736D01*
X0026531Y0069858D01*
X0026634Y0069476D01*
X0026831Y0069134D01*
X0026950Y0069015D01*
X0026331Y0068397D01*
X0026331Y0066241D01*
X0021084Y0060993D01*
X0020381Y0060290D01*
X0020000Y0059371D01*
X0020000Y0035306D01*
X0020381Y0034387D01*
X0024599Y0030168D01*
X0024599Y0028688D01*
X0024168Y0028937D01*
X0021422Y0029673D01*
X0018578Y0029673D01*
X0015832Y0028937D01*
X0014500Y0028168D01*
X0014500Y0089580D01*
X0015832Y0088811D01*
X0018578Y0088075D01*
X0021422Y0088075D01*
X0024168Y0088811D01*
X0026631Y0090232D01*
X0027763Y0091364D01*
X0027500Y0090730D01*
X0027500Y0088586D01*
X0027327Y0088586D01*
X0026331Y0087590D01*
X0026331Y0081851D01*
X0026950Y0081233D01*
X0026831Y0081114D01*
X0026634Y0080772D01*
X0026531Y0080390D01*
X0026531Y0078512D01*
X0029516Y0078512D01*
X0029516Y0077543D01*
X0026531Y0077543D01*
X0026531Y0078770D02*
X0014500Y0078770D01*
X0014500Y0079768D02*
X0026531Y0079768D01*
X0026632Y0080767D02*
X0014500Y0080767D01*
X0014500Y0081765D02*
X0026417Y0081765D01*
X0026331Y0082764D02*
X0014500Y0082764D01*
X0014500Y0083762D02*
X0026331Y0083762D01*
X0026331Y0084761D02*
X0014500Y0084761D01*
X0014500Y0085759D02*
X0026331Y0085759D01*
X0026331Y0086758D02*
X0014500Y0086758D01*
X0014500Y0087756D02*
X0026498Y0087756D01*
X0027500Y0088755D02*
X0023960Y0088755D01*
X0025801Y0089753D02*
X0027500Y0089753D01*
X0027509Y0090752D02*
X0027150Y0090752D01*
X0016040Y0088755D02*
X0014500Y0088755D01*
X0029516Y0076773D02*
X0030484Y0076773D01*
X0030484Y0075774D02*
X0029516Y0075774D01*
X0029516Y0074776D02*
X0030484Y0074776D01*
X0030484Y0073777D02*
X0029516Y0073777D01*
X0029516Y0072779D02*
X0030484Y0072779D01*
X0030484Y0071780D02*
X0036335Y0071780D01*
X0036335Y0072543D02*
X0036335Y0070862D01*
X0036437Y0070480D01*
X0036634Y0070138D01*
X0036914Y0069859D01*
X0037256Y0069661D01*
X0037637Y0069559D01*
X0039516Y0069559D01*
X0039516Y0072543D01*
X0036335Y0072543D01*
X0036335Y0073777D02*
X0033468Y0073777D01*
X0033468Y0072779D02*
X0039516Y0072779D01*
X0040484Y0072779D02*
X0044311Y0072779D01*
X0044016Y0071780D02*
X0043665Y0071780D01*
X0043644Y0070782D02*
X0044016Y0070782D01*
X0044388Y0069783D02*
X0042955Y0069783D01*
X0045162Y0068785D02*
X0033281Y0068785D01*
X0033449Y0069783D02*
X0037044Y0069783D01*
X0036356Y0070782D02*
X0033468Y0070782D01*
X0029516Y0071780D02*
X0014500Y0071780D01*
X0014500Y0070782D02*
X0026531Y0070782D01*
X0026551Y0069783D02*
X0014500Y0069783D01*
X0014500Y0068785D02*
X0026719Y0068785D01*
X0026331Y0067786D02*
X0014500Y0067786D01*
X0014500Y0066788D02*
X0026331Y0066788D01*
X0025880Y0065789D02*
X0014500Y0065789D01*
X0014500Y0064791D02*
X0024881Y0064791D01*
X0023883Y0063792D02*
X0014500Y0063792D01*
X0014500Y0062794D02*
X0022884Y0062794D01*
X0021886Y0061795D02*
X0014500Y0061795D01*
X0014500Y0060797D02*
X0020887Y0060797D01*
X0020177Y0059798D02*
X0014500Y0059798D01*
X0014500Y0058800D02*
X0020000Y0058800D01*
X0020000Y0057801D02*
X0014500Y0057801D01*
X0014500Y0056803D02*
X0020000Y0056803D01*
X0020000Y0055804D02*
X0014500Y0055804D01*
X0014500Y0054806D02*
X0020000Y0054806D01*
X0020000Y0053807D02*
X0014500Y0053807D01*
X0014500Y0052809D02*
X0020000Y0052809D01*
X0020000Y0051810D02*
X0014500Y0051810D01*
X0014500Y0050811D02*
X0020000Y0050811D01*
X0020000Y0049813D02*
X0014500Y0049813D01*
X0014500Y0048814D02*
X0020000Y0048814D01*
X0020000Y0047816D02*
X0014500Y0047816D01*
X0014500Y0046817D02*
X0020000Y0046817D01*
X0020000Y0045819D02*
X0014500Y0045819D01*
X0014500Y0044820D02*
X0020000Y0044820D01*
X0020000Y0043822D02*
X0014500Y0043822D01*
X0014500Y0042823D02*
X0020000Y0042823D01*
X0020000Y0041825D02*
X0014500Y0041825D01*
X0014500Y0040826D02*
X0020000Y0040826D01*
X0020000Y0039828D02*
X0014500Y0039828D01*
X0014500Y0038829D02*
X0020000Y0038829D01*
X0020000Y0037831D02*
X0014500Y0037831D01*
X0014500Y0036832D02*
X0020000Y0036832D01*
X0020000Y0035834D02*
X0014500Y0035834D01*
X0014500Y0034835D02*
X0020195Y0034835D01*
X0020931Y0033837D02*
X0014500Y0033837D01*
X0014500Y0032838D02*
X0021929Y0032838D01*
X0022928Y0031840D02*
X0014500Y0031840D01*
X0014500Y0030841D02*
X0023926Y0030841D01*
X0024599Y0029843D02*
X0014500Y0029843D01*
X0014500Y0028844D02*
X0015671Y0028844D01*
X0024329Y0028844D02*
X0024599Y0028844D01*
X0027003Y0034835D02*
X0082402Y0034835D01*
X0081646Y0035834D02*
X0026005Y0035834D01*
X0025006Y0036832D02*
X0081646Y0036832D01*
X0081646Y0037831D02*
X0046628Y0037831D01*
X0046314Y0037701D02*
X0048742Y0038707D01*
X0050601Y0040565D01*
X0051606Y0042993D01*
X0051606Y0045621D01*
X0050601Y0048049D01*
X0048742Y0049908D01*
X0046314Y0050913D01*
X0043686Y0050913D01*
X0041258Y0049908D01*
X0039399Y0048049D01*
X0038394Y0045621D01*
X0038394Y0042993D01*
X0039399Y0040565D01*
X0041258Y0038707D01*
X0043686Y0037701D01*
X0046314Y0037701D01*
X0048865Y0038829D02*
X0081646Y0038829D01*
X0081646Y0039828D02*
X0049863Y0039828D01*
X0050709Y0040826D02*
X0081646Y0040826D01*
X0081646Y0041825D02*
X0051122Y0041825D01*
X0051536Y0042823D02*
X0081646Y0042823D01*
X0081646Y0043822D02*
X0051606Y0043822D01*
X0051606Y0044820D02*
X0081646Y0044820D01*
X0081646Y0045819D02*
X0051524Y0045819D01*
X0051111Y0046817D02*
X0081646Y0046817D01*
X0082620Y0047816D02*
X0064889Y0047816D01*
X0052079Y0047816D02*
X0050697Y0047816D01*
X0049835Y0048814D02*
X0051568Y0048814D01*
X0051568Y0049813D02*
X0048837Y0049813D01*
X0046560Y0050811D02*
X0051568Y0050811D01*
X0051568Y0051810D02*
X0038432Y0051810D01*
X0038432Y0050811D02*
X0043440Y0050811D01*
X0041163Y0049813D02*
X0038432Y0049813D01*
X0038432Y0048814D02*
X0040165Y0048814D01*
X0039303Y0047816D02*
X0037921Y0047816D01*
X0038889Y0046817D02*
X0025000Y0046817D01*
X0025000Y0045819D02*
X0038476Y0045819D01*
X0038394Y0044820D02*
X0025000Y0044820D01*
X0025000Y0043822D02*
X0038394Y0043822D01*
X0038464Y0042823D02*
X0025000Y0042823D01*
X0025000Y0041825D02*
X0038878Y0041825D01*
X0039291Y0040826D02*
X0025000Y0040826D01*
X0025000Y0039828D02*
X0040136Y0039828D01*
X0041135Y0038829D02*
X0025000Y0038829D01*
X0025000Y0037831D02*
X0043372Y0037831D01*
X0047386Y0026847D02*
X0091996Y0026847D01*
X0092260Y0025849D02*
X0093289Y0025849D01*
X0092920Y0024850D02*
X0117080Y0024850D01*
X0117080Y0023852D02*
X0092920Y0023852D01*
X0092920Y0022853D02*
X0117080Y0022853D01*
X0117080Y0021855D02*
X0092920Y0021855D01*
X0092920Y0020856D02*
X0117080Y0020856D01*
X0117080Y0019858D02*
X0092920Y0019858D01*
X0092920Y0018859D02*
X0117080Y0018859D01*
X0117080Y0017861D02*
X0092920Y0017861D01*
X0092920Y0016862D02*
X0117080Y0016862D01*
X0117080Y0015864D02*
X0092920Y0015864D01*
X0092920Y0014865D02*
X0117080Y0014865D01*
X0117151Y0013867D02*
X0092849Y0013867D01*
X0081717Y0013867D02*
X0065201Y0013867D01*
X0065201Y0014865D02*
X0081646Y0014865D01*
X0081646Y0015864D02*
X0058394Y0015864D01*
X0058394Y0016862D02*
X0057394Y0016862D01*
X0057394Y0015864D02*
X0049521Y0015864D01*
X0050520Y0016862D02*
X0050587Y0016862D01*
X0050587Y0014865D02*
X0048212Y0014865D01*
X0050587Y0013867D02*
X0029579Y0013867D01*
X0049179Y0025849D02*
X0082307Y0025849D01*
X0081646Y0024850D02*
X0050178Y0024850D01*
X0050839Y0023852D02*
X0081646Y0023852D01*
X0081646Y0022853D02*
X0051253Y0022853D01*
X0051606Y0021855D02*
X0081646Y0021855D01*
X0081646Y0020856D02*
X0065102Y0020856D01*
X0065201Y0019858D02*
X0081646Y0019858D01*
X0081646Y0018859D02*
X0065201Y0018859D01*
X0065201Y0017861D02*
X0081646Y0017861D01*
X0081646Y0016862D02*
X0065201Y0016862D01*
X0058394Y0017861D02*
X0057394Y0017861D01*
X0057394Y0018859D02*
X0058394Y0018859D01*
X0058394Y0019858D02*
X0057394Y0019858D01*
X0057394Y0020856D02*
X0058394Y0020856D01*
X0099388Y0025849D02*
X0110612Y0025849D01*
X0109319Y0026847D02*
X0100681Y0026847D01*
X0101665Y0027846D02*
X0108334Y0027846D01*
X0107921Y0028844D02*
X0102079Y0028844D01*
X0102493Y0029843D02*
X0107507Y0029843D01*
X0107390Y0030841D02*
X0102610Y0030841D01*
X0102610Y0031840D02*
X0107390Y0031840D01*
X0107480Y0032838D02*
X0102520Y0032838D01*
X0102107Y0033837D02*
X0107893Y0033837D01*
X0113783Y0037831D02*
X0117080Y0037831D01*
X0117080Y0038829D02*
X0113783Y0038829D01*
X0113783Y0039828D02*
X0117080Y0039828D01*
X0117080Y0040826D02*
X0113783Y0040826D01*
X0113783Y0041217D02*
X0113783Y0046335D01*
X0113681Y0046717D01*
X0113484Y0047059D01*
X0113204Y0047338D01*
X0112862Y0047536D01*
X0112481Y0047638D01*
X0111299Y0047638D01*
X0111299Y0041217D01*
X0111299Y0041217D01*
X0113783Y0041217D01*
X0113783Y0041825D02*
X0117080Y0041825D01*
X0117080Y0042823D02*
X0113783Y0042823D01*
X0113783Y0043822D02*
X0117080Y0043822D01*
X0117080Y0044820D02*
X0113783Y0044820D01*
X0113783Y0045819D02*
X0117080Y0045819D01*
X0117080Y0046817D02*
X0113623Y0046817D01*
X0111299Y0046817D02*
X0111299Y0046817D01*
X0111299Y0045819D02*
X0111299Y0045819D01*
X0111299Y0044820D02*
X0111299Y0044820D01*
X0111299Y0043822D02*
X0111299Y0043822D01*
X0111299Y0042823D02*
X0111299Y0042823D01*
X0111299Y0041825D02*
X0111299Y0041825D01*
X0109860Y0047816D02*
X0118054Y0047816D01*
X0118716Y0050206D02*
X0119712Y0051201D01*
X0119712Y0051374D01*
X0120073Y0051374D01*
X0120526Y0050920D01*
X0121807Y0050390D01*
X0123193Y0050390D01*
X0124474Y0050920D01*
X0125454Y0051900D01*
X0125984Y0053181D01*
X0125984Y0054567D01*
X0125454Y0055848D01*
X0124474Y0056828D01*
X0123193Y0057358D01*
X0121807Y0057358D01*
X0120526Y0056828D01*
X0120073Y0056374D01*
X0119712Y0056374D01*
X0119712Y0056547D01*
X0118716Y0057543D01*
X0118346Y0057543D01*
X0118346Y0059646D01*
X0117966Y0060565D01*
X0117263Y0061269D01*
X0116523Y0062008D01*
X0116523Y0064322D01*
X0115527Y0065318D01*
X0111953Y0065318D01*
X0110957Y0064322D01*
X0110957Y0058189D01*
X0111918Y0057229D01*
X0111898Y0057240D01*
X0111516Y0057343D01*
X0109638Y0057343D01*
X0109638Y0054358D01*
X0108669Y0054358D01*
X0108669Y0053390D01*
X0105488Y0053390D01*
X0105488Y0051708D01*
X0105590Y0051327D01*
X0105788Y0050984D01*
X0106067Y0050705D01*
X0106409Y0050508D01*
X0106791Y0050406D01*
X0108669Y0050406D01*
X0108669Y0053390D01*
X0109638Y0053390D01*
X0109638Y0050406D01*
X0111516Y0050406D01*
X0111898Y0050508D01*
X0112240Y0050705D01*
X0112359Y0050824D01*
X0112977Y0050206D01*
X0118716Y0050206D01*
X0119322Y0050811D02*
X0120789Y0050811D01*
X0124211Y0050811D02*
X0139527Y0050811D01*
X0140525Y0049813D02*
X0101201Y0049813D01*
X0101201Y0050811D02*
X0105961Y0050811D01*
X0105488Y0051810D02*
X0101201Y0051810D01*
X0101201Y0052809D02*
X0105488Y0052809D01*
X0105488Y0054358D02*
X0108669Y0054358D01*
X0108669Y0057343D01*
X0108196Y0057343D01*
X0109043Y0058189D01*
X0109043Y0064322D01*
X0108047Y0065318D01*
X0104473Y0065318D01*
X0103477Y0064322D01*
X0103477Y0058189D01*
X0104473Y0057193D01*
X0106328Y0057193D01*
X0106067Y0057043D01*
X0105788Y0056764D01*
X0105590Y0056421D01*
X0105488Y0056040D01*
X0105488Y0054358D01*
X0105488Y0054806D02*
X0101201Y0054806D01*
X0101201Y0055804D02*
X0105488Y0055804D01*
X0105827Y0056803D02*
X0101201Y0056803D01*
X0101201Y0057801D02*
X0103865Y0057801D01*
X0103477Y0058800D02*
X0101201Y0058800D01*
X0101201Y0059798D02*
X0103477Y0059798D01*
X0103477Y0060797D02*
X0101201Y0060797D01*
X0101201Y0061795D02*
X0103477Y0061795D01*
X0103477Y0062794D02*
X0101201Y0062794D01*
X0102095Y0063792D02*
X0103477Y0063792D01*
X0103094Y0064791D02*
X0103946Y0064791D01*
X0104092Y0065789D02*
X0119144Y0065789D01*
X0119031Y0064791D02*
X0116054Y0064791D01*
X0116523Y0063792D02*
X0119031Y0063792D01*
X0116523Y0062794D02*
X0122016Y0062794D01*
X0122016Y0062543D02*
X0119031Y0062543D01*
X0119031Y0060665D01*
X0119134Y0060283D01*
X0119331Y0059941D01*
X0119610Y0059662D01*
X0119953Y0059464D01*
X0120334Y0059362D01*
X0122016Y0059362D01*
X0122016Y0062543D01*
X0122016Y0061795D02*
X0122984Y0061795D01*
X0122984Y0060797D02*
X0122016Y0060797D01*
X0122016Y0059798D02*
X0122984Y0059798D01*
X0119474Y0059798D02*
X0118284Y0059798D01*
X0118346Y0058800D02*
X0131539Y0058800D01*
X0130540Y0059798D02*
X0125526Y0059798D01*
X0125968Y0060797D02*
X0129542Y0060797D01*
X0128543Y0061795D02*
X0125968Y0061795D01*
X0127545Y0062794D02*
X0122984Y0062794D01*
X0125968Y0063792D02*
X0126546Y0063792D01*
X0129623Y0067786D02*
X0163500Y0067786D01*
X0163500Y0066788D02*
X0130622Y0066788D01*
X0131620Y0065789D02*
X0163500Y0065789D01*
X0163500Y0064791D02*
X0132619Y0064791D01*
X0133617Y0063792D02*
X0163500Y0063792D01*
X0163500Y0062794D02*
X0134616Y0062794D01*
X0135614Y0061795D02*
X0163500Y0061795D01*
X0163500Y0060797D02*
X0136613Y0060797D01*
X0137611Y0059798D02*
X0163500Y0059798D01*
X0163500Y0058374D02*
X0163500Y0038677D01*
X0163602Y0038295D01*
X0163800Y0037953D01*
X0164079Y0037674D01*
X0164421Y0037476D01*
X0164803Y0037374D01*
X0169500Y0037374D01*
X0169500Y0058374D01*
X0163500Y0058374D01*
X0163500Y0057801D02*
X0139608Y0057801D01*
X0138610Y0058800D02*
X0169500Y0058800D01*
X0169500Y0059798D02*
X0170500Y0059798D01*
X0170500Y0060797D02*
X0169500Y0060797D01*
X0169500Y0061795D02*
X0170500Y0061795D01*
X0170500Y0062794D02*
X0169500Y0062794D01*
X0169500Y0063792D02*
X0170500Y0063792D01*
X0170500Y0064791D02*
X0169500Y0064791D01*
X0169500Y0065789D02*
X0170500Y0065789D01*
X0170500Y0066788D02*
X0169500Y0066788D01*
X0169500Y0067786D02*
X0170500Y0067786D01*
X0170500Y0068785D02*
X0169500Y0068785D01*
X0169500Y0069783D02*
X0170500Y0069783D01*
X0170500Y0070782D02*
X0169500Y0070782D01*
X0169500Y0071780D02*
X0170500Y0071780D01*
X0170500Y0072779D02*
X0169500Y0072779D01*
X0169500Y0073777D02*
X0170500Y0073777D01*
X0170500Y0074776D02*
X0169500Y0074776D01*
X0169500Y0075774D02*
X0170500Y0075774D01*
X0170500Y0076773D02*
X0169500Y0076773D01*
X0169500Y0077771D02*
X0170500Y0077771D01*
X0170500Y0078770D02*
X0169500Y0078770D01*
X0169500Y0079768D02*
X0170500Y0079768D01*
X0167559Y0081765D02*
X0175500Y0081765D01*
X0175500Y0080767D02*
X0166560Y0080767D01*
X0168535Y0082764D02*
X0175500Y0082764D01*
X0175500Y0083762D02*
X0168535Y0083762D01*
X0168535Y0084761D02*
X0175500Y0084761D01*
X0175500Y0085759D02*
X0168444Y0085759D01*
X0167445Y0086758D02*
X0175500Y0086758D01*
X0175500Y0087756D02*
X0166447Y0087756D01*
X0166040Y0088755D02*
X0165420Y0088755D01*
X0157735Y0083762D02*
X0152920Y0083762D01*
X0152920Y0082764D02*
X0158706Y0082764D01*
X0159789Y0081765D02*
X0152766Y0081765D01*
X0156030Y0080767D02*
X0160703Y0080767D01*
X0161701Y0079768D02*
X0156498Y0079768D01*
X0157933Y0078770D02*
X0163500Y0078770D01*
X0163500Y0077771D02*
X0158932Y0077771D01*
X0159151Y0076773D02*
X0163500Y0076773D01*
X0163500Y0075774D02*
X0160929Y0075774D01*
X0161927Y0074776D02*
X0163500Y0074776D01*
X0163500Y0073777D02*
X0162926Y0073777D01*
X0162661Y0069783D02*
X0163500Y0069783D01*
X0163500Y0068785D02*
X0157416Y0068785D01*
X0155185Y0068785D02*
X0128625Y0068785D01*
X0127626Y0069783D02*
X0154187Y0069783D01*
X0153188Y0070782D02*
X0126628Y0070782D01*
X0126168Y0071780D02*
X0152190Y0071780D01*
X0152784Y0071186D02*
X0152784Y0071186D01*
X0151191Y0072779D02*
X0125980Y0072779D01*
X0121979Y0073777D02*
X0150404Y0073777D01*
X0150404Y0074776D02*
X0120980Y0074776D01*
X0119982Y0075774D02*
X0148506Y0075774D01*
X0148636Y0075774D02*
X0150750Y0075774D01*
X0147008Y0076773D02*
X0118983Y0076773D01*
X0117985Y0077771D02*
X0146788Y0077771D01*
X0145200Y0078770D02*
X0116595Y0078770D01*
X0116523Y0071780D02*
X0116905Y0071780D01*
X0116523Y0070782D02*
X0117903Y0070782D01*
X0118831Y0069783D02*
X0116523Y0069783D01*
X0116523Y0068785D02*
X0118831Y0068785D01*
X0118831Y0067786D02*
X0115883Y0067786D01*
X0118895Y0066788D02*
X0105091Y0066788D01*
X0108574Y0064791D02*
X0111426Y0064791D01*
X0110957Y0063792D02*
X0109043Y0063792D01*
X0109043Y0062794D02*
X0110957Y0062794D01*
X0110957Y0061795D02*
X0109043Y0061795D01*
X0109043Y0060797D02*
X0110957Y0060797D01*
X0110957Y0059798D02*
X0109043Y0059798D01*
X0109043Y0058800D02*
X0110957Y0058800D01*
X0111346Y0057801D02*
X0108654Y0057801D01*
X0108669Y0056803D02*
X0109638Y0056803D01*
X0109638Y0055804D02*
X0108669Y0055804D01*
X0108669Y0054806D02*
X0109638Y0054806D01*
X0108669Y0053807D02*
X0101201Y0053807D01*
X0101201Y0048814D02*
X0141524Y0048814D01*
X0142523Y0047816D02*
X0127380Y0047816D01*
X0128354Y0046817D02*
X0143521Y0046817D01*
X0144520Y0045819D02*
X0128354Y0045819D01*
X0128354Y0044820D02*
X0145518Y0044820D01*
X0146517Y0043822D02*
X0128354Y0043822D01*
X0128354Y0042823D02*
X0147515Y0042823D01*
X0148514Y0041825D02*
X0128354Y0041825D01*
X0128354Y0040826D02*
X0149512Y0040826D01*
X0150511Y0039828D02*
X0128354Y0039828D01*
X0128354Y0038829D02*
X0151509Y0038829D01*
X0152500Y0037831D02*
X0128354Y0037831D01*
X0128354Y0036832D02*
X0152500Y0036832D01*
X0152500Y0035834D02*
X0128354Y0035834D01*
X0127598Y0034835D02*
X0152500Y0034835D01*
X0152500Y0033837D02*
X0119430Y0033837D01*
X0119843Y0032838D02*
X0152500Y0032838D01*
X0152500Y0031840D02*
X0119933Y0031840D01*
X0119933Y0030841D02*
X0152500Y0030841D01*
X0152500Y0029843D02*
X0119816Y0029843D01*
X0119402Y0028844D02*
X0152500Y0028844D01*
X0152500Y0027846D02*
X0118988Y0027846D01*
X0118004Y0026847D02*
X0152500Y0026847D01*
X0152500Y0025849D02*
X0127693Y0025849D01*
X0128354Y0024850D02*
X0152500Y0024850D01*
X0152500Y0023852D02*
X0128354Y0023852D01*
X0128354Y0022853D02*
X0140858Y0022853D01*
X0140800Y0022795D02*
X0140602Y0022453D01*
X0140500Y0022071D01*
X0140500Y0019374D01*
X0144500Y0019374D01*
X0144500Y0018374D01*
X0145500Y0018374D01*
X0145500Y0019374D01*
X0149500Y0019374D01*
X0149500Y0022071D01*
X0149398Y0022453D01*
X0149200Y0022795D01*
X0148921Y0023074D01*
X0148579Y0023272D01*
X0148197Y0023374D01*
X0145500Y0023374D01*
X0145500Y0019374D01*
X0144500Y0019374D01*
X0144500Y0023374D01*
X0141803Y0023374D01*
X0141421Y0023272D01*
X0141079Y0023074D01*
X0140800Y0022795D01*
X0140500Y0021855D02*
X0128354Y0021855D01*
X0128354Y0020856D02*
X0140500Y0020856D01*
X0140500Y0019858D02*
X0128354Y0019858D01*
X0128354Y0018859D02*
X0144500Y0018859D01*
X0144500Y0018374D02*
X0140500Y0018374D01*
X0140500Y0015677D01*
X0140602Y0015295D01*
X0140800Y0014953D01*
X0141079Y0014674D01*
X0141421Y0014476D01*
X0141803Y0014374D01*
X0144500Y0014374D01*
X0144500Y0018374D01*
X0144500Y0017861D02*
X0145500Y0017861D01*
X0145500Y0018374D02*
X0145500Y0014374D01*
X0148197Y0014374D01*
X0148579Y0014476D01*
X0148921Y0014674D01*
X0149200Y0014953D01*
X0149398Y0015295D01*
X0149500Y0015677D01*
X0149500Y0018374D01*
X0145500Y0018374D01*
X0145500Y0018859D02*
X0150300Y0018859D01*
X0150300Y0017861D02*
X0149500Y0017861D01*
X0149500Y0016862D02*
X0150300Y0016862D01*
X0150300Y0015864D02*
X0149500Y0015864D01*
X0149112Y0014865D02*
X0150605Y0014865D01*
X0145500Y0014865D02*
X0144500Y0014865D01*
X0144500Y0015864D02*
X0145500Y0015864D01*
X0145500Y0016862D02*
X0144500Y0016862D01*
X0140500Y0016862D02*
X0128354Y0016862D01*
X0128354Y0015864D02*
X0140500Y0015864D01*
X0140888Y0014865D02*
X0128354Y0014865D01*
X0128283Y0013867D02*
X0160421Y0013867D01*
X0159894Y0014865D02*
X0159395Y0014865D01*
X0150300Y0019858D02*
X0149500Y0019858D01*
X0149500Y0020856D02*
X0150300Y0020856D01*
X0150300Y0021855D02*
X0149500Y0021855D01*
X0149142Y0022853D02*
X0150575Y0022853D01*
X0145500Y0022853D02*
X0144500Y0022853D01*
X0144500Y0021855D02*
X0145500Y0021855D01*
X0145500Y0020856D02*
X0144500Y0020856D01*
X0144500Y0019858D02*
X0145500Y0019858D01*
X0140500Y0017861D02*
X0128354Y0017861D01*
X0117740Y0025849D02*
X0116711Y0025849D01*
X0116872Y0036832D02*
X0117080Y0036832D01*
X0112371Y0050811D02*
X0112346Y0050811D01*
X0109638Y0050811D02*
X0108669Y0050811D01*
X0108669Y0051810D02*
X0109638Y0051810D01*
X0109638Y0052809D02*
X0108669Y0052809D01*
X0118346Y0057801D02*
X0132537Y0057801D01*
X0133536Y0056803D02*
X0124499Y0056803D01*
X0125472Y0055804D02*
X0134534Y0055804D01*
X0135533Y0054806D02*
X0125885Y0054806D01*
X0125984Y0053807D02*
X0136531Y0053807D01*
X0137530Y0052809D02*
X0125830Y0052809D01*
X0125363Y0051810D02*
X0138528Y0051810D01*
X0142604Y0054806D02*
X0163500Y0054806D01*
X0163500Y0055804D02*
X0141605Y0055804D01*
X0140607Y0056803D02*
X0163500Y0056803D01*
X0163500Y0053807D02*
X0143603Y0053807D01*
X0144601Y0052809D02*
X0163500Y0052809D01*
X0163500Y0051810D02*
X0145600Y0051810D01*
X0146598Y0050811D02*
X0163500Y0050811D01*
X0163500Y0049813D02*
X0147597Y0049813D01*
X0148595Y0048814D02*
X0163500Y0048814D01*
X0163500Y0047816D02*
X0149594Y0047816D01*
X0150592Y0046817D02*
X0163500Y0046817D01*
X0163500Y0045819D02*
X0151591Y0045819D01*
X0152589Y0044820D02*
X0163500Y0044820D01*
X0163500Y0043822D02*
X0153588Y0043822D01*
X0154586Y0042823D02*
X0163500Y0042823D01*
X0163500Y0041825D02*
X0155585Y0041825D01*
X0156583Y0040826D02*
X0163500Y0040826D01*
X0163500Y0039828D02*
X0157311Y0039828D01*
X0157500Y0038829D02*
X0163500Y0038829D01*
X0163922Y0037831D02*
X0157500Y0037831D01*
X0157500Y0036832D02*
X0175500Y0036832D01*
X0175500Y0035834D02*
X0157500Y0035834D01*
X0157500Y0034835D02*
X0175500Y0034835D01*
X0175500Y0033837D02*
X0157500Y0033837D01*
X0157500Y0032838D02*
X0175500Y0032838D01*
X0175500Y0031840D02*
X0157500Y0031840D01*
X0157500Y0030841D02*
X0175500Y0030841D01*
X0175500Y0029843D02*
X0157500Y0029843D01*
X0157500Y0028844D02*
X0165671Y0028844D01*
X0163941Y0027846D02*
X0157500Y0027846D01*
X0157500Y0026847D02*
X0162701Y0026847D01*
X0161702Y0025849D02*
X0157500Y0025849D01*
X0157500Y0024850D02*
X0160980Y0024850D01*
X0160404Y0023852D02*
X0157500Y0023852D01*
X0159425Y0022853D02*
X0159886Y0022853D01*
X0174329Y0028844D02*
X0175500Y0028844D01*
X0170500Y0037831D02*
X0169500Y0037831D01*
X0169500Y0038829D02*
X0170500Y0038829D01*
X0170500Y0039828D02*
X0169500Y0039828D01*
X0169500Y0040826D02*
X0170500Y0040826D01*
X0170500Y0041825D02*
X0169500Y0041825D01*
X0169500Y0042823D02*
X0170500Y0042823D01*
X0170500Y0043822D02*
X0169500Y0043822D01*
X0169500Y0044820D02*
X0170500Y0044820D01*
X0170500Y0045819D02*
X0169500Y0045819D01*
X0169500Y0046817D02*
X0170500Y0046817D01*
X0170500Y0047816D02*
X0169500Y0047816D01*
X0169500Y0048814D02*
X0170500Y0048814D01*
X0170500Y0049813D02*
X0169500Y0049813D01*
X0169500Y0050811D02*
X0170500Y0050811D01*
X0170500Y0051810D02*
X0169500Y0051810D01*
X0169500Y0052809D02*
X0170500Y0052809D01*
X0170500Y0053807D02*
X0169500Y0053807D01*
X0169500Y0054806D02*
X0170500Y0054806D01*
X0170500Y0055804D02*
X0169500Y0055804D01*
X0169500Y0056803D02*
X0170500Y0056803D01*
X0170500Y0057801D02*
X0169500Y0057801D01*
X0144201Y0079768D02*
X0102270Y0079768D01*
X0103249Y0080767D02*
X0143643Y0080767D01*
X0143643Y0081765D02*
X0103249Y0081765D01*
X0103249Y0082764D02*
X0143643Y0082764D01*
X0144153Y0083762D02*
X0103249Y0083762D01*
X0103249Y0084761D02*
X0145043Y0084761D01*
X0146150Y0085759D02*
X0142176Y0085759D01*
X0141656Y0085239D02*
X0142974Y0086557D01*
X0142974Y0086557D01*
X0143779Y0087363D01*
X0145097Y0088681D01*
X0145097Y0091606D01*
X0142187Y0094516D01*
X0141982Y0094516D01*
X0141982Y0094721D01*
X0140664Y0096039D01*
X0139929Y0096039D01*
X0139998Y0096385D01*
X0139859Y0096594D01*
X0139859Y0096845D01*
X0139357Y0097346D01*
X0138964Y0097936D01*
X0138718Y0097985D01*
X0138541Y0098163D01*
X0137831Y0098163D01*
X0137274Y0098274D01*
X0137274Y0099429D01*
X0135956Y0100747D01*
X0131969Y0100747D01*
X0131438Y0100216D01*
X0131381Y0100159D01*
X0130651Y0099429D01*
X0128528Y0097306D01*
X0128528Y0095442D01*
X0129846Y0094124D01*
X0130651Y0094124D01*
X0130651Y0093319D01*
X0131969Y0092001D01*
X0132174Y0092001D01*
X0132174Y0091796D01*
X0133492Y0090478D01*
X0134227Y0090478D01*
X0134158Y0090132D01*
X0134297Y0089924D01*
X0134297Y0089673D01*
X0134798Y0089171D01*
X0135192Y0088581D01*
X0135438Y0088532D01*
X0135615Y0088355D01*
X0135820Y0088355D01*
X0135820Y0088150D01*
X0136776Y0087194D01*
X0137412Y0086557D01*
X0137774Y0086195D01*
X0138730Y0085239D01*
X0141656Y0085239D01*
X0143174Y0086758D02*
X0147149Y0086758D01*
X0149945Y0086758D02*
X0154712Y0086758D01*
X0153713Y0087756D02*
X0144173Y0087756D01*
X0143779Y0087363D02*
X0143779Y0087363D01*
X0145097Y0088755D02*
X0152715Y0088755D01*
X0151716Y0089753D02*
X0145097Y0089753D01*
X0145097Y0090752D02*
X0150718Y0090752D01*
X0150443Y0091750D02*
X0144953Y0091750D01*
X0143954Y0092749D02*
X0148721Y0092749D01*
X0148320Y0093747D02*
X0142956Y0093747D01*
X0141957Y0094746D02*
X0148320Y0094746D01*
X0148910Y0095745D02*
X0140959Y0095745D01*
X0139859Y0096743D02*
X0147912Y0096743D01*
X0143728Y0097742D02*
X0139093Y0097742D01*
X0137274Y0098740D02*
X0142730Y0098740D01*
X0141731Y0099739D02*
X0136965Y0099739D01*
X0135966Y0100737D02*
X0141028Y0100737D01*
X0141028Y0101736D02*
X0097212Y0101736D01*
X0097212Y0102734D02*
X0141456Y0102734D01*
X0142454Y0103733D02*
X0097212Y0103733D01*
X0097519Y0100737D02*
X0131959Y0100737D01*
X0131438Y0100216D02*
X0131438Y0100216D01*
X0130960Y0099739D02*
X0098517Y0099739D01*
X0102463Y0098740D02*
X0129962Y0098740D01*
X0130651Y0099429D02*
X0130651Y0099429D01*
X0128963Y0097742D02*
X0103249Y0097742D01*
X0103249Y0096743D02*
X0128528Y0096743D01*
X0128528Y0095745D02*
X0103249Y0095745D01*
X0103249Y0094746D02*
X0129224Y0094746D01*
X0130651Y0093747D02*
X0103249Y0093747D01*
X0103249Y0092749D02*
X0131221Y0092749D01*
X0132219Y0091750D02*
X0103249Y0091750D01*
X0103249Y0090752D02*
X0133218Y0090752D01*
X0134297Y0089753D02*
X0103249Y0089753D01*
X0103249Y0088755D02*
X0135076Y0088755D01*
X0136213Y0087756D02*
X0103249Y0087756D01*
X0103249Y0086758D02*
X0137212Y0086758D01*
X0137412Y0086557D02*
X0137412Y0086557D01*
X0138210Y0085759D02*
X0103249Y0085759D01*
X0109959Y0070782D02*
X0110041Y0070782D01*
X0110041Y0069783D02*
X0109959Y0069783D01*
X0109959Y0068785D02*
X0110041Y0068785D01*
X0110041Y0067786D02*
X0109959Y0067786D01*
X0116736Y0061795D02*
X0119031Y0061795D01*
X0119031Y0060797D02*
X0117735Y0060797D01*
X0119456Y0056803D02*
X0120501Y0056803D01*
X0151942Y0084761D02*
X0156709Y0084761D01*
X0155710Y0085759D02*
X0150944Y0085759D01*
X0173960Y0088755D02*
X0175500Y0088755D01*
X0072500Y0083762D02*
X0057500Y0083762D01*
X0057500Y0082764D02*
X0072500Y0082764D01*
X0072500Y0081765D02*
X0057500Y0081765D01*
X0057500Y0080767D02*
X0072500Y0080767D01*
X0072500Y0079768D02*
X0057500Y0079768D01*
X0057500Y0078770D02*
X0072500Y0078770D01*
X0072500Y0077771D02*
X0057500Y0077771D01*
X0057500Y0076773D02*
X0072500Y0076773D01*
X0072500Y0075774D02*
X0057984Y0075774D01*
X0058668Y0074776D02*
X0072500Y0074776D01*
X0072476Y0073777D02*
X0058668Y0073777D01*
X0058668Y0072779D02*
X0071811Y0072779D01*
X0071516Y0071780D02*
X0058668Y0071780D01*
X0058668Y0070782D02*
X0071516Y0070782D01*
X0071888Y0069783D02*
X0058668Y0069783D01*
X0058281Y0068785D02*
X0072662Y0068785D01*
X0052500Y0060797D02*
X0027958Y0060797D01*
X0032806Y0061795D02*
X0052194Y0061795D01*
X0051331Y0062794D02*
X0033668Y0062794D01*
X0033668Y0063792D02*
X0051331Y0063792D01*
X0051331Y0064791D02*
X0033668Y0064791D01*
X0033668Y0065789D02*
X0051331Y0065789D01*
X0051331Y0066788D02*
X0033668Y0066788D01*
X0033668Y0067786D02*
X0051331Y0067786D01*
X0051719Y0068785D02*
X0049838Y0068785D01*
X0050612Y0069783D02*
X0051331Y0069783D01*
X0051331Y0070782D02*
X0050984Y0070782D01*
X0050984Y0071780D02*
X0051331Y0071780D01*
X0051331Y0072779D02*
X0050689Y0072779D01*
X0051331Y0073777D02*
X0050024Y0073777D01*
X0045310Y0076773D02*
X0043590Y0076773D01*
X0043448Y0075774D02*
X0045000Y0075774D01*
X0045000Y0074776D02*
X0043665Y0074776D01*
X0043665Y0073777D02*
X0044976Y0073777D01*
X0040484Y0071780D02*
X0039516Y0071780D01*
X0039516Y0070782D02*
X0040484Y0070782D01*
X0040484Y0069783D02*
X0039516Y0069783D01*
X0036335Y0074776D02*
X0033417Y0074776D01*
X0033468Y0075774D02*
X0036552Y0075774D01*
X0036410Y0076773D02*
X0033468Y0076773D01*
X0026531Y0075774D02*
X0014500Y0075774D01*
X0014500Y0074776D02*
X0026583Y0074776D01*
X0026531Y0073777D02*
X0014500Y0073777D01*
X0014500Y0072779D02*
X0026531Y0072779D01*
X0044933Y0077771D02*
X0046135Y0077771D01*
X0046135Y0078770D02*
X0045931Y0078770D01*
X0052181Y0059798D02*
X0037819Y0059798D01*
X0038432Y0058800D02*
X0051568Y0058800D01*
X0051568Y0057801D02*
X0038432Y0057801D01*
X0038432Y0056803D02*
X0051568Y0056803D01*
X0051568Y0055804D02*
X0038432Y0055804D01*
X0038432Y0054806D02*
X0051568Y0054806D01*
X0051568Y0053807D02*
X0038432Y0053807D01*
X0038432Y0052809D02*
X0051568Y0052809D01*
X0025111Y0047816D02*
X0025000Y0047816D01*
M02*
