G75*
%MOIN*%
%OFA0B0*%
%FSLAX25Y25*%
%IPPOS*%
%LPD*%
%AMOC8*
5,1,8,0,0,1.08239X$1,22.5*
%
%ADD10C,0.01400*%
%ADD11C,0.01000*%
%ADD12C,0.01575*%
%ADD13C,0.00800*%
%ADD14C,0.01000*%
%ADD15C,0.00500*%
D10*
X0151195Y0050508D02*
X0152129Y0049574D01*
X0155866Y0049574D01*
X0156800Y0050508D01*
X0156800Y0052376D01*
X0155866Y0053311D01*
X0153998Y0053311D01*
X0153998Y0051442D01*
X0152129Y0053311D02*
X0151195Y0052376D01*
X0151195Y0050508D01*
X0151195Y0056020D02*
X0156800Y0059756D01*
X0151195Y0059756D01*
X0151195Y0062465D02*
X0151195Y0065267D01*
X0152129Y0066202D01*
X0155866Y0066202D01*
X0156800Y0065267D01*
X0156800Y0062465D01*
X0151195Y0062465D01*
X0151195Y0056020D02*
X0156800Y0056020D01*
D11*
X0147000Y0045584D02*
X0146333Y0046251D01*
X0143664Y0046251D01*
X0142997Y0045584D01*
X0142997Y0043582D01*
X0147000Y0043582D01*
X0147000Y0045584D01*
X0147000Y0041647D02*
X0142997Y0041647D01*
X0142997Y0038978D02*
X0147000Y0041647D01*
X0147000Y0038978D02*
X0142997Y0038978D01*
X0143664Y0037043D02*
X0142997Y0036376D01*
X0142997Y0035041D01*
X0143664Y0034374D01*
X0146333Y0034374D01*
X0147000Y0035041D01*
X0147000Y0036376D01*
X0146333Y0037043D01*
X0144998Y0037043D01*
X0144998Y0035708D01*
X0152997Y0034374D02*
X0154998Y0034374D01*
X0154331Y0035708D01*
X0154331Y0036376D01*
X0154998Y0037043D01*
X0156333Y0037043D01*
X0157000Y0036376D01*
X0157000Y0035041D01*
X0156333Y0034374D01*
X0152997Y0034374D02*
X0152997Y0037043D01*
X0152997Y0038978D02*
X0155666Y0038978D01*
X0157000Y0040312D01*
X0155666Y0041647D01*
X0152997Y0041647D01*
X0100906Y0081949D02*
X0089094Y0081949D01*
X0089094Y0096752D01*
X0100906Y0096752D01*
X0100906Y0081949D01*
X0064185Y0023854D02*
X0064185Y0021185D01*
X0064185Y0022520D02*
X0060182Y0022520D01*
X0061516Y0021185D01*
D12*
X0103071Y0095232D02*
X0103073Y0095288D01*
X0103079Y0095343D01*
X0103089Y0095397D01*
X0103102Y0095451D01*
X0103120Y0095504D01*
X0103141Y0095555D01*
X0103165Y0095605D01*
X0103193Y0095653D01*
X0103225Y0095699D01*
X0103259Y0095743D01*
X0103297Y0095784D01*
X0103337Y0095822D01*
X0103380Y0095857D01*
X0103425Y0095889D01*
X0103473Y0095918D01*
X0103522Y0095944D01*
X0103573Y0095966D01*
X0103625Y0095984D01*
X0103679Y0095998D01*
X0103734Y0096009D01*
X0103789Y0096016D01*
X0103844Y0096019D01*
X0103900Y0096018D01*
X0103955Y0096013D01*
X0104010Y0096004D01*
X0104064Y0095992D01*
X0104117Y0095975D01*
X0104169Y0095955D01*
X0104219Y0095931D01*
X0104267Y0095904D01*
X0104314Y0095874D01*
X0104358Y0095840D01*
X0104400Y0095803D01*
X0104438Y0095763D01*
X0104475Y0095721D01*
X0104508Y0095676D01*
X0104537Y0095630D01*
X0104564Y0095581D01*
X0104586Y0095530D01*
X0104606Y0095478D01*
X0104621Y0095424D01*
X0104633Y0095370D01*
X0104641Y0095315D01*
X0104645Y0095260D01*
X0104645Y0095204D01*
X0104641Y0095149D01*
X0104633Y0095094D01*
X0104621Y0095040D01*
X0104606Y0094986D01*
X0104586Y0094934D01*
X0104564Y0094883D01*
X0104537Y0094834D01*
X0104508Y0094788D01*
X0104475Y0094743D01*
X0104438Y0094701D01*
X0104400Y0094661D01*
X0104358Y0094624D01*
X0104314Y0094590D01*
X0104267Y0094560D01*
X0104219Y0094533D01*
X0104169Y0094509D01*
X0104117Y0094489D01*
X0104064Y0094472D01*
X0104010Y0094460D01*
X0103955Y0094451D01*
X0103900Y0094446D01*
X0103844Y0094445D01*
X0103789Y0094448D01*
X0103734Y0094455D01*
X0103679Y0094466D01*
X0103625Y0094480D01*
X0103573Y0094498D01*
X0103522Y0094520D01*
X0103473Y0094546D01*
X0103425Y0094575D01*
X0103380Y0094607D01*
X0103337Y0094642D01*
X0103297Y0094680D01*
X0103259Y0094721D01*
X0103225Y0094765D01*
X0103193Y0094811D01*
X0103165Y0094859D01*
X0103141Y0094909D01*
X0103120Y0094960D01*
X0103102Y0095013D01*
X0103089Y0095067D01*
X0103079Y0095121D01*
X0103073Y0095176D01*
X0103071Y0095232D01*
D13*
X0105000Y0068065D02*
X0105000Y0064683D01*
X0108943Y0063583D02*
X0111057Y0063583D01*
X0115000Y0064683D02*
X0115000Y0068065D01*
X0113661Y0044366D02*
X0117205Y0044366D01*
X0119961Y0034524D02*
X0119961Y0026256D01*
X0139252Y0031669D02*
X0160906Y0031669D01*
X0160906Y0009031D01*
X0139252Y0009031D01*
X0139252Y0031669D01*
X0139252Y0009031D02*
X0139252Y0006079D01*
X0160906Y0006079D01*
X0160906Y0009031D01*
X0096339Y0044366D02*
X0092795Y0044366D01*
X0090039Y0034524D02*
X0090039Y0026256D01*
X0050000Y0094683D02*
X0050000Y0098065D01*
X0046057Y0099165D02*
X0043943Y0099165D01*
X0040000Y0098065D02*
X0040000Y0094683D01*
D14*
X0038700Y0092374D03*
X0116300Y0070374D03*
D15*
X0037126Y0008874D02*
X0035157Y0008874D01*
X0035157Y0056118D01*
X0054843Y0056118D01*
X0054843Y0008874D01*
X0052874Y0008874D01*
X0052874Y0002969D01*
X0037126Y0002969D01*
X0037126Y0008874D01*
X0052874Y0008874D01*
M02*
