G75*
%MOIN*%
%OFA0B0*%
%FSLAX25Y25*%
%IPPOS*%
%LPD*%
%AMOC8*
5,1,8,0,0,1.08239X$1,22.5*
%
%ADD10R,0.06000X0.06000*%
%ADD11C,0.03569*%
%ADD12C,0.01000*%
%ADD13C,0.01600*%
D10*
X0145000Y0018874D03*
X0155000Y0018874D03*
D11*
X0140000Y0028874D03*
X0150000Y0036374D03*
X0160000Y0038874D03*
X0140000Y0043874D03*
X0130000Y0053874D03*
X0122500Y0053874D03*
X0150000Y0068874D03*
X0160000Y0058874D03*
X0160000Y0078874D03*
X0150000Y0088874D03*
X0140000Y0078874D03*
X0130000Y0088874D03*
X0120000Y0078874D03*
X0110000Y0088874D03*
X0100000Y0078874D03*
X0080000Y0078874D03*
X0075000Y0071374D03*
X0060000Y0078874D03*
X0047500Y0071374D03*
X0040000Y0063874D03*
X0047500Y0053874D03*
X0070000Y0048874D03*
X0060000Y0038874D03*
X0070000Y0028874D03*
X0080000Y0038874D03*
X0090000Y0048874D03*
X0080000Y0058874D03*
X0045000Y0033874D03*
X0030000Y0038874D03*
X0020000Y0068874D03*
X0020000Y0078874D03*
X0035000Y0088874D03*
X0120000Y0098874D03*
X0140000Y0098874D03*
X0105000Y0018874D03*
D12*
X0030063Y0014706D02*
X0029294Y0013374D01*
X0160706Y0013374D01*
X0159937Y0014706D01*
X0159700Y0015589D01*
X0159700Y0015170D01*
X0158704Y0014174D01*
X0151296Y0014174D01*
X0150300Y0015170D01*
X0150300Y0022578D01*
X0151296Y0023574D01*
X0158704Y0023574D01*
X0159700Y0022578D01*
X0159700Y0022159D01*
X0159937Y0023042D01*
X0161358Y0025505D01*
X0163369Y0027516D01*
X0165832Y0028937D01*
X0168578Y0029673D01*
X0171422Y0029673D01*
X0174168Y0028937D01*
X0175500Y0028168D01*
X0175500Y0089580D01*
X0174168Y0088811D01*
X0171422Y0088075D01*
X0168578Y0088075D01*
X0165832Y0088811D01*
X0163369Y0090232D01*
X0161358Y0092243D01*
X0159937Y0094706D01*
X0159201Y0097452D01*
X0159201Y0100296D01*
X0159937Y0103042D01*
X0160706Y0104374D01*
X0029294Y0104374D01*
X0030063Y0103042D01*
X0030799Y0100296D01*
X0030799Y0097452D01*
X0030063Y0094706D01*
X0028642Y0092243D01*
X0026631Y0090232D01*
X0024168Y0088811D01*
X0021422Y0088075D01*
X0018578Y0088075D01*
X0015832Y0088811D01*
X0014500Y0089580D01*
X0014500Y0028168D01*
X0015832Y0028937D01*
X0018578Y0029673D01*
X0021422Y0029673D01*
X0024168Y0028937D01*
X0026631Y0027516D01*
X0028642Y0025505D01*
X0030063Y0023042D01*
X0030799Y0020296D01*
X0030799Y0017452D01*
X0030063Y0014706D01*
X0030106Y0014865D02*
X0041788Y0014865D01*
X0041258Y0015084D02*
X0043686Y0014079D01*
X0046314Y0014079D01*
X0048742Y0015084D01*
X0050601Y0016943D01*
X0051606Y0019371D01*
X0051606Y0021999D01*
X0050601Y0024427D01*
X0048742Y0026286D01*
X0046314Y0027291D01*
X0043686Y0027291D01*
X0041258Y0026286D01*
X0039399Y0024427D01*
X0038394Y0021999D01*
X0038394Y0019371D01*
X0039399Y0016943D01*
X0041258Y0015084D01*
X0040479Y0015864D02*
X0030374Y0015864D01*
X0030641Y0016862D02*
X0039480Y0016862D01*
X0039019Y0017861D02*
X0030799Y0017861D01*
X0030799Y0018859D02*
X0038606Y0018859D01*
X0038394Y0019858D02*
X0030799Y0019858D01*
X0030649Y0020856D02*
X0038394Y0020856D01*
X0038394Y0021855D02*
X0030381Y0021855D01*
X0030114Y0022853D02*
X0038747Y0022853D01*
X0039161Y0023852D02*
X0029596Y0023852D01*
X0029020Y0024850D02*
X0039822Y0024850D01*
X0040821Y0025849D02*
X0028298Y0025849D01*
X0027299Y0026847D02*
X0042614Y0026847D01*
X0047386Y0026847D02*
X0091996Y0026847D01*
X0092786Y0026057D02*
X0091022Y0027821D01*
X0090067Y0030127D01*
X0090067Y0032622D01*
X0091022Y0034927D01*
X0092786Y0036691D01*
X0095091Y0037646D01*
X0097586Y0037646D01*
X0099891Y0036691D01*
X0101655Y0034927D01*
X0102610Y0032622D01*
X0102610Y0030127D01*
X0101655Y0027821D01*
X0099891Y0026057D01*
X0097586Y0025102D01*
X0095091Y0025102D01*
X0092786Y0026057D01*
X0093289Y0025849D02*
X0049179Y0025849D01*
X0050178Y0024850D02*
X0160980Y0024850D01*
X0160404Y0023852D02*
X0050839Y0023852D01*
X0051253Y0022853D02*
X0140858Y0022853D01*
X0140800Y0022795D02*
X0140602Y0022453D01*
X0140500Y0022071D01*
X0140500Y0019374D01*
X0144500Y0019374D01*
X0144500Y0018374D01*
X0145500Y0018374D01*
X0145500Y0019374D01*
X0149500Y0019374D01*
X0149500Y0022071D01*
X0149398Y0022453D01*
X0149200Y0022795D01*
X0148921Y0023074D01*
X0148579Y0023272D01*
X0148197Y0023374D01*
X0145500Y0023374D01*
X0145500Y0019374D01*
X0144500Y0019374D01*
X0144500Y0023374D01*
X0141803Y0023374D01*
X0141421Y0023272D01*
X0141079Y0023074D01*
X0140800Y0022795D01*
X0140500Y0021855D02*
X0051606Y0021855D01*
X0051606Y0020856D02*
X0140500Y0020856D01*
X0140500Y0019858D02*
X0051606Y0019858D01*
X0051394Y0018859D02*
X0144500Y0018859D01*
X0144500Y0018374D02*
X0140500Y0018374D01*
X0140500Y0015677D01*
X0140602Y0015295D01*
X0140800Y0014953D01*
X0141079Y0014674D01*
X0141421Y0014476D01*
X0141803Y0014374D01*
X0144500Y0014374D01*
X0144500Y0018374D01*
X0144500Y0017861D02*
X0145500Y0017861D01*
X0145500Y0018374D02*
X0145500Y0014374D01*
X0148197Y0014374D01*
X0148579Y0014476D01*
X0148921Y0014674D01*
X0149200Y0014953D01*
X0149398Y0015295D01*
X0149500Y0015677D01*
X0149500Y0018374D01*
X0145500Y0018374D01*
X0145500Y0018859D02*
X0150300Y0018859D01*
X0150300Y0017861D02*
X0149500Y0017861D01*
X0149500Y0016862D02*
X0150300Y0016862D01*
X0150300Y0015864D02*
X0149500Y0015864D01*
X0149112Y0014865D02*
X0150605Y0014865D01*
X0145500Y0014865D02*
X0144500Y0014865D01*
X0144500Y0015864D02*
X0145500Y0015864D01*
X0145500Y0016862D02*
X0144500Y0016862D01*
X0140500Y0016862D02*
X0050520Y0016862D01*
X0050981Y0017861D02*
X0140500Y0017861D01*
X0140500Y0015864D02*
X0049521Y0015864D01*
X0048212Y0014865D02*
X0140888Y0014865D01*
X0144500Y0019858D02*
X0145500Y0019858D01*
X0145500Y0020856D02*
X0144500Y0020856D01*
X0144500Y0021855D02*
X0145500Y0021855D01*
X0145500Y0022853D02*
X0144500Y0022853D01*
X0149142Y0022853D02*
X0150575Y0022853D01*
X0150300Y0021855D02*
X0149500Y0021855D01*
X0149500Y0020856D02*
X0150300Y0020856D01*
X0150300Y0019858D02*
X0149500Y0019858D01*
X0159425Y0022853D02*
X0159886Y0022853D01*
X0161702Y0025849D02*
X0116711Y0025849D01*
X0117214Y0026057D02*
X0118978Y0027821D01*
X0119933Y0030127D01*
X0119933Y0032622D01*
X0118978Y0034927D01*
X0117214Y0036691D01*
X0114909Y0037646D01*
X0112414Y0037646D01*
X0110109Y0036691D01*
X0108345Y0034927D01*
X0107390Y0032622D01*
X0107390Y0030127D01*
X0108345Y0027821D01*
X0110109Y0026057D01*
X0112414Y0025102D01*
X0114909Y0025102D01*
X0117214Y0026057D01*
X0118004Y0026847D02*
X0162701Y0026847D01*
X0163941Y0027846D02*
X0118988Y0027846D01*
X0119402Y0028844D02*
X0165671Y0028844D01*
X0174329Y0028844D02*
X0175500Y0028844D01*
X0175500Y0029843D02*
X0119816Y0029843D01*
X0119933Y0030841D02*
X0175500Y0030841D01*
X0175500Y0031840D02*
X0119933Y0031840D01*
X0119843Y0032838D02*
X0175500Y0032838D01*
X0175500Y0033837D02*
X0119430Y0033837D01*
X0119016Y0034835D02*
X0175500Y0034835D01*
X0175500Y0035834D02*
X0118071Y0035834D01*
X0116872Y0036832D02*
X0175500Y0036832D01*
X0175500Y0037831D02*
X0046628Y0037831D01*
X0046314Y0037701D02*
X0048742Y0038707D01*
X0050601Y0040565D01*
X0051606Y0042993D01*
X0051606Y0045621D01*
X0050601Y0048049D01*
X0048742Y0049908D01*
X0046314Y0050913D01*
X0043686Y0050913D01*
X0041258Y0049908D01*
X0039399Y0048049D01*
X0038394Y0045621D01*
X0038394Y0042993D01*
X0039399Y0040565D01*
X0041258Y0038707D01*
X0043686Y0037701D01*
X0046314Y0037701D01*
X0048865Y0038829D02*
X0175500Y0038829D01*
X0175500Y0039828D02*
X0049863Y0039828D01*
X0050709Y0040826D02*
X0175500Y0040826D01*
X0175500Y0041825D02*
X0051122Y0041825D01*
X0051536Y0042823D02*
X0175500Y0042823D01*
X0175500Y0043822D02*
X0051606Y0043822D01*
X0051606Y0044820D02*
X0175500Y0044820D01*
X0175500Y0045819D02*
X0051524Y0045819D01*
X0051111Y0046817D02*
X0175500Y0046817D01*
X0175500Y0047816D02*
X0050697Y0047816D01*
X0049835Y0048814D02*
X0175500Y0048814D01*
X0175500Y0049813D02*
X0048837Y0049813D01*
X0046560Y0050811D02*
X0120789Y0050811D01*
X0120526Y0050920D02*
X0121807Y0050390D01*
X0123193Y0050390D01*
X0124474Y0050920D01*
X0125454Y0051900D01*
X0125984Y0053181D01*
X0125984Y0054567D01*
X0125454Y0055848D01*
X0125000Y0056301D01*
X0125000Y0056871D01*
X0124619Y0057790D01*
X0123916Y0058493D01*
X0111416Y0070993D01*
X0110497Y0071374D01*
X0078484Y0071374D01*
X0078484Y0072067D01*
X0077954Y0073348D01*
X0076974Y0074328D01*
X0075693Y0074858D01*
X0074307Y0074858D01*
X0073026Y0074328D01*
X0072046Y0073348D01*
X0071516Y0072067D01*
X0071516Y0071374D01*
X0051036Y0071374D01*
X0050984Y0071425D01*
X0050984Y0072067D01*
X0050454Y0073348D01*
X0050000Y0073801D01*
X0050000Y0076871D01*
X0049619Y0077790D01*
X0038484Y0088925D01*
X0038484Y0089567D01*
X0037954Y0090848D01*
X0036974Y0091828D01*
X0035693Y0092358D01*
X0034307Y0092358D01*
X0033026Y0091828D01*
X0032046Y0090848D01*
X0031516Y0089567D01*
X0031516Y0088181D01*
X0032046Y0086900D01*
X0033026Y0085920D01*
X0034307Y0085390D01*
X0034949Y0085390D01*
X0045000Y0075338D01*
X0045000Y0073801D01*
X0044546Y0073348D01*
X0044016Y0072067D01*
X0044016Y0070681D01*
X0044546Y0069400D01*
X0045526Y0068420D01*
X0046807Y0067890D01*
X0047449Y0067890D01*
X0047881Y0067458D01*
X0048584Y0066755D01*
X0049503Y0066374D01*
X0108964Y0066374D01*
X0119530Y0055809D01*
X0119016Y0054567D01*
X0119016Y0053181D01*
X0119546Y0051900D01*
X0120526Y0050920D01*
X0119637Y0051810D02*
X0014500Y0051810D01*
X0014500Y0050811D02*
X0043440Y0050811D01*
X0041163Y0049813D02*
X0014500Y0049813D01*
X0014500Y0048814D02*
X0040165Y0048814D01*
X0039303Y0047816D02*
X0014500Y0047816D01*
X0014500Y0046817D02*
X0038889Y0046817D01*
X0038476Y0045819D02*
X0014500Y0045819D01*
X0014500Y0044820D02*
X0038394Y0044820D01*
X0038394Y0043822D02*
X0014500Y0043822D01*
X0014500Y0042823D02*
X0038464Y0042823D01*
X0038878Y0041825D02*
X0014500Y0041825D01*
X0014500Y0040826D02*
X0039291Y0040826D01*
X0040136Y0039828D02*
X0014500Y0039828D01*
X0014500Y0038829D02*
X0041135Y0038829D01*
X0043372Y0037831D02*
X0014500Y0037831D01*
X0014500Y0036832D02*
X0093128Y0036832D01*
X0091929Y0035834D02*
X0014500Y0035834D01*
X0014500Y0034835D02*
X0090984Y0034835D01*
X0090570Y0033837D02*
X0014500Y0033837D01*
X0014500Y0032838D02*
X0090157Y0032838D01*
X0090067Y0031840D02*
X0014500Y0031840D01*
X0014500Y0030841D02*
X0090067Y0030841D01*
X0090184Y0029843D02*
X0014500Y0029843D01*
X0014500Y0028844D02*
X0015671Y0028844D01*
X0024329Y0028844D02*
X0090598Y0028844D01*
X0091012Y0027846D02*
X0026059Y0027846D01*
X0029579Y0013867D02*
X0160421Y0013867D01*
X0159894Y0014865D02*
X0159395Y0014865D01*
X0110612Y0025849D02*
X0099388Y0025849D01*
X0100681Y0026847D02*
X0109319Y0026847D01*
X0108334Y0027846D02*
X0101665Y0027846D01*
X0102079Y0028844D02*
X0107921Y0028844D01*
X0107507Y0029843D02*
X0102493Y0029843D01*
X0102610Y0030841D02*
X0107390Y0030841D01*
X0107390Y0031840D02*
X0102610Y0031840D01*
X0102520Y0032838D02*
X0107480Y0032838D01*
X0107893Y0033837D02*
X0102107Y0033837D01*
X0101693Y0034835D02*
X0108307Y0034835D01*
X0109252Y0035834D02*
X0100748Y0035834D01*
X0099550Y0036832D02*
X0110450Y0036832D01*
X0124211Y0050811D02*
X0175500Y0050811D01*
X0175500Y0051810D02*
X0125363Y0051810D01*
X0125830Y0052809D02*
X0175500Y0052809D01*
X0175500Y0053807D02*
X0125984Y0053807D01*
X0125885Y0054806D02*
X0175500Y0054806D01*
X0175500Y0055804D02*
X0125472Y0055804D01*
X0125000Y0056803D02*
X0175500Y0056803D01*
X0175500Y0057801D02*
X0124608Y0057801D01*
X0123610Y0058800D02*
X0175500Y0058800D01*
X0175500Y0059798D02*
X0122611Y0059798D01*
X0121613Y0060797D02*
X0175500Y0060797D01*
X0175500Y0061795D02*
X0120614Y0061795D01*
X0119616Y0062794D02*
X0175500Y0062794D01*
X0175500Y0063792D02*
X0118617Y0063792D01*
X0117619Y0064791D02*
X0175500Y0064791D01*
X0175500Y0065789D02*
X0116620Y0065789D01*
X0115622Y0066788D02*
X0175500Y0066788D01*
X0175500Y0067786D02*
X0114623Y0067786D01*
X0113625Y0068785D02*
X0175500Y0068785D01*
X0175500Y0069783D02*
X0112626Y0069783D01*
X0111628Y0070782D02*
X0175500Y0070782D01*
X0175500Y0071780D02*
X0078484Y0071780D01*
X0078189Y0072779D02*
X0175500Y0072779D01*
X0175500Y0073777D02*
X0077524Y0073777D01*
X0075892Y0074776D02*
X0175500Y0074776D01*
X0175500Y0075774D02*
X0050000Y0075774D01*
X0050000Y0074776D02*
X0074108Y0074776D01*
X0072476Y0073777D02*
X0050024Y0073777D01*
X0050689Y0072779D02*
X0071811Y0072779D01*
X0071516Y0071780D02*
X0050984Y0071780D01*
X0050000Y0076773D02*
X0175500Y0076773D01*
X0175500Y0077771D02*
X0049627Y0077771D01*
X0048640Y0078770D02*
X0175500Y0078770D01*
X0175500Y0079768D02*
X0047641Y0079768D01*
X0046643Y0080767D02*
X0093177Y0080767D01*
X0093831Y0080496D02*
X0096169Y0080496D01*
X0098330Y0081391D01*
X0099983Y0083044D01*
X0100878Y0085205D01*
X0100878Y0087543D01*
X0099983Y0089704D01*
X0098330Y0091357D01*
X0096169Y0092252D01*
X0093831Y0092252D01*
X0091670Y0091357D01*
X0090017Y0089704D01*
X0089122Y0087543D01*
X0089122Y0085205D01*
X0090017Y0083044D01*
X0091670Y0081391D01*
X0093831Y0080496D01*
X0091296Y0081765D02*
X0045644Y0081765D01*
X0044646Y0082764D02*
X0090297Y0082764D01*
X0089720Y0083762D02*
X0043647Y0083762D01*
X0042649Y0084761D02*
X0089306Y0084761D01*
X0089122Y0085759D02*
X0041650Y0085759D01*
X0040652Y0086758D02*
X0089122Y0086758D01*
X0089210Y0087756D02*
X0039653Y0087756D01*
X0038655Y0088755D02*
X0089624Y0088755D01*
X0090067Y0089753D02*
X0038407Y0089753D01*
X0037993Y0090752D02*
X0091065Y0090752D01*
X0092620Y0091750D02*
X0037051Y0091750D01*
X0032949Y0091750D02*
X0028149Y0091750D01*
X0028934Y0092749D02*
X0161066Y0092749D01*
X0160490Y0093747D02*
X0029510Y0093747D01*
X0030074Y0094746D02*
X0159926Y0094746D01*
X0159658Y0095745D02*
X0030342Y0095745D01*
X0030609Y0096743D02*
X0159391Y0096743D01*
X0159201Y0097742D02*
X0030799Y0097742D01*
X0030799Y0098740D02*
X0159201Y0098740D01*
X0159201Y0099739D02*
X0030799Y0099739D01*
X0030681Y0100737D02*
X0159319Y0100737D01*
X0159587Y0101736D02*
X0030413Y0101736D01*
X0030146Y0102734D02*
X0159854Y0102734D01*
X0160335Y0103733D02*
X0029665Y0103733D01*
X0032007Y0090752D02*
X0027150Y0090752D01*
X0025801Y0089753D02*
X0031593Y0089753D01*
X0031516Y0088755D02*
X0023960Y0088755D01*
X0031692Y0087756D02*
X0014500Y0087756D01*
X0014500Y0086758D02*
X0032189Y0086758D01*
X0033415Y0085759D02*
X0014500Y0085759D01*
X0014500Y0084761D02*
X0035578Y0084761D01*
X0036576Y0083762D02*
X0014500Y0083762D01*
X0014500Y0082764D02*
X0037575Y0082764D01*
X0038573Y0081765D02*
X0014500Y0081765D01*
X0014500Y0080767D02*
X0039572Y0080767D01*
X0040570Y0079768D02*
X0014500Y0079768D01*
X0014500Y0078770D02*
X0041569Y0078770D01*
X0042567Y0077771D02*
X0014500Y0077771D01*
X0014500Y0076773D02*
X0043566Y0076773D01*
X0044564Y0075774D02*
X0014500Y0075774D01*
X0014500Y0074776D02*
X0045000Y0074776D01*
X0044976Y0073777D02*
X0014500Y0073777D01*
X0014500Y0072779D02*
X0044311Y0072779D01*
X0044016Y0071780D02*
X0014500Y0071780D01*
X0014500Y0070782D02*
X0044016Y0070782D01*
X0044388Y0069783D02*
X0014500Y0069783D01*
X0014500Y0068785D02*
X0045162Y0068785D01*
X0047552Y0067786D02*
X0014500Y0067786D01*
X0014500Y0066788D02*
X0048551Y0066788D01*
X0014500Y0065789D02*
X0109549Y0065789D01*
X0110548Y0064791D02*
X0014500Y0064791D01*
X0014500Y0063792D02*
X0111546Y0063792D01*
X0112545Y0062794D02*
X0014500Y0062794D01*
X0014500Y0061795D02*
X0113543Y0061795D01*
X0114542Y0060797D02*
X0014500Y0060797D01*
X0014500Y0059798D02*
X0115540Y0059798D01*
X0116539Y0058800D02*
X0014500Y0058800D01*
X0014500Y0057801D02*
X0117537Y0057801D01*
X0118536Y0056803D02*
X0014500Y0056803D01*
X0014500Y0055804D02*
X0119528Y0055804D01*
X0119115Y0054806D02*
X0014500Y0054806D01*
X0014500Y0053807D02*
X0119016Y0053807D01*
X0119170Y0052809D02*
X0014500Y0052809D01*
X0014500Y0088755D02*
X0016040Y0088755D01*
X0096823Y0080767D02*
X0175500Y0080767D01*
X0175500Y0081765D02*
X0098704Y0081765D01*
X0099703Y0082764D02*
X0175500Y0082764D01*
X0175500Y0083762D02*
X0100280Y0083762D01*
X0100694Y0084761D02*
X0175500Y0084761D01*
X0175500Y0085759D02*
X0100878Y0085759D01*
X0100878Y0086758D02*
X0175500Y0086758D01*
X0175500Y0087756D02*
X0100790Y0087756D01*
X0100376Y0088755D02*
X0166040Y0088755D01*
X0164199Y0089753D02*
X0099933Y0089753D01*
X0098935Y0090752D02*
X0162850Y0090752D01*
X0161851Y0091750D02*
X0097380Y0091750D01*
X0173960Y0088755D02*
X0175500Y0088755D01*
D13*
X0122500Y0056374D02*
X0122500Y0053874D01*
X0122500Y0056374D02*
X0110000Y0068874D01*
X0075000Y0068874D01*
X0075000Y0071374D01*
X0075000Y0068874D02*
X0050000Y0068874D01*
X0047500Y0071374D01*
X0047500Y0076374D01*
X0035000Y0088874D01*
M02*
