%
M48
M72
T01C0.01969
T02C0.02756
T03C0.03543
T04C0.04000
T05C0.04213
T06C0.12598
%
T01
X45000Y33874
X30000Y38874
X47500Y53874
X40000Y63874
X47500Y71374
X60000Y78874
X75000Y71374
X80000Y78874
X100000Y78874
X110000Y88874
X120000Y78874
X130000Y88874
X140000Y78874
X150000Y68874
X160000Y58874
X140000Y43874
X150000Y36374
X160000Y38874
X140000Y28874
X105000Y18874
X80000Y38874
X70000Y28874
X60000Y38874
X70000Y48874
X80000Y58874
X90000Y48874
X122500Y53874
X130000Y53874
X160000Y78874
X150000Y88874
X140000Y98874
X120000Y98874
X35000Y88874
X20000Y78874
X20000Y68874
T02
X95000Y86374
T03
X96339Y31374
X113661Y31374
T04
X145000Y18874
X155000Y18874
T05
X45000Y20685
X45000Y44307
T06
X20000Y18874
X20000Y98874
X170000Y98874
X170000Y18874
M30
